<svg xmlns="http://www.w3.org/2000/svg" xmlns:xlink="http://www.w3.org/1999/xlink" width="1080" zoomAndPan="magnify" viewBox="0 0 810 809.999993" height="1080" preserveAspectRatio="xMidYMid meet" version="1.0"><defs><g/></defs><rect x="-81" width="972" fill="#ffffff" y="-80.999999" height="971.999992" fill-opacity="1"/><rect x="-81" width="972" fill="#ffffff" y="-80.999999" height="971.999992" fill-opacity="1"/><rect x="-81" width="972" fill="#f6f6e9" y="-80.999999" height="971.999992" fill-opacity="1"/><g fill="#272727" fill-opacity="1"><g transform="translate(779.851668, 455.383365)"><g><path d="M -0.109375 -5.8125 C -0.109375 -5.820312 -0.0859375 -5.828125 -0.046875 -5.828125 C -0.015625 -5.828125 0 -5.820312 0 -5.8125 L 0 -4.796875 C 0 -4.742188 0 -4.648438 0 -4.515625 C 0.0078125 -4.390625 -0.175781 -4.179688 -0.5625 -3.890625 C -0.945312 -3.609375 -1.195312 -3.425781 -1.3125 -3.34375 L -3 -2 L -2.734375 -1.71875 L -0.734375 -1.71875 C -0.546875 -1.71875 -0.410156 -1.734375 -0.328125 -1.765625 C -0.242188 -1.804688 -0.1875 -1.878906 -0.15625 -1.984375 C -0.125 -2.085938 -0.109375 -2.25 -0.109375 -2.46875 C -0.109375 -2.488281 -0.0859375 -2.5 -0.046875 -2.5 C -0.015625 -2.5 0 -2.488281 0 -2.46875 C 0 -2.269531 -0.00390625 -2.125 -0.015625 -2.03125 L -0.015625 -0.765625 C -0.00390625 -0.648438 0 -0.5 0 -0.3125 C 0 -0.289062 -0.015625 -0.28125 -0.046875 -0.28125 C -0.0859375 -0.28125 -0.109375 -0.289062 -0.109375 -0.3125 C -0.109375 -0.53125 -0.125 -0.6875 -0.15625 -0.78125 C -0.1875 -0.882812 -0.242188 -0.957031 -0.328125 -1 C -0.410156 -1.039062 -0.546875 -1.0625 -0.734375 -1.0625 L -4.890625 -1.0625 C -5.078125 -1.0625 -5.210938 -1.039062 -5.296875 -1 C -5.378906 -0.96875 -5.4375 -0.898438 -5.46875 -0.796875 C -5.5 -0.691406 -5.515625 -0.53125 -5.515625 -0.3125 C -5.515625 -0.300781 -5.53125 -0.296875 -5.5625 -0.296875 C -5.601562 -0.296875 -5.625 -0.300781 -5.625 -0.3125 L -5.609375 -0.765625 C -5.597656 -1.023438 -5.59375 -1.234375 -5.59375 -1.390625 C -5.59375 -1.554688 -5.597656 -1.769531 -5.609375 -2.03125 L -5.625 -2.46875 C -5.625 -2.476562 -5.601562 -2.484375 -5.5625 -2.484375 C -5.53125 -2.484375 -5.515625 -2.476562 -5.515625 -2.46875 C -5.515625 -2.25 -5.492188 -2.085938 -5.453125 -1.984375 C -5.421875 -1.878906 -5.359375 -1.804688 -5.265625 -1.765625 C -5.179688 -1.734375 -5.050781 -1.71875 -4.875 -1.71875 L -2.96875 -1.71875 L -4.859375 -3.59375 C -5.066406 -3.789062 -5.21875 -3.890625 -5.3125 -3.890625 C -5.445312 -3.890625 -5.515625 -3.710938 -5.515625 -3.359375 C -5.515625 -3.347656 -5.53125 -3.34375 -5.5625 -3.34375 C -5.601562 -3.34375 -5.625 -3.347656 -5.625 -3.359375 L -5.609375 -3.75 C -5.597656 -3.988281 -5.59375 -4.210938 -5.59375 -4.421875 C -5.59375 -4.640625 -5.597656 -4.851562 -5.609375 -5.0625 L -5.625 -5.421875 C -5.625 -5.429688 -5.601562 -5.4375 -5.5625 -5.4375 C -5.53125 -5.4375 -5.515625 -5.429688 -5.515625 -5.421875 C -5.515625 -5.171875 -5.457031 -4.898438 -5.34375 -4.609375 C -5.226562 -4.316406 -5.050781 -4.050781 -4.8125 -3.8125 L -3.46875 -2.46875 L -1.796875 -3.765625 C -1.222656 -4.191406 -0.820312 -4.515625 -0.59375 -4.734375 C -0.363281 -4.960938 -0.222656 -5.140625 -0.171875 -5.265625 C -0.128906 -5.398438 -0.109375 -5.582031 -0.109375 -5.8125 Z M -0.109375 -5.8125 "/></g></g></g><g fill="#272727" fill-opacity="1"><g transform="translate(779.851668, 449.524322)"><g><path d="M -0.515625 -3.28125 C -0.515625 -3.289062 -0.503906 -3.300781 -0.484375 -3.3125 C -0.460938 -3.332031 -0.445312 -3.335938 -0.4375 -3.328125 C -0.0703125 -2.929688 0.109375 -2.488281 0.109375 -2 C 0.109375 -1.644531 0.03125 -1.34375 -0.125 -1.09375 C -0.289062 -0.84375 -0.503906 -0.648438 -0.765625 -0.515625 C -1.035156 -0.378906 -1.320312 -0.3125 -1.625 -0.3125 C -1.976562 -0.3125 -2.300781 -0.394531 -2.59375 -0.5625 C -2.894531 -0.738281 -3.128906 -0.972656 -3.296875 -1.265625 C -3.472656 -1.554688 -3.5625 -1.878906 -3.5625 -2.234375 C -3.5625 -2.585938 -3.472656 -2.851562 -3.296875 -3.03125 C -3.117188 -3.21875 -2.863281 -3.3125 -2.53125 -3.3125 C -2.363281 -3.3125 -2.28125 -3.273438 -2.28125 -3.203125 L -2.28125 -0.984375 C -2.144531 -0.972656 -2.039062 -0.96875 -1.96875 -0.96875 C -1.445312 -0.96875 -1.023438 -1.085938 -0.703125 -1.328125 C -0.390625 -1.578125 -0.234375 -1.925781 -0.234375 -2.375 C -0.234375 -2.550781 -0.253906 -2.703125 -0.296875 -2.828125 C -0.347656 -2.953125 -0.421875 -3.097656 -0.515625 -3.265625 Z M -3.375 -1.9375 C -3.375 -1.6875 -3.285156 -1.476562 -3.109375 -1.3125 C -2.941406 -1.15625 -2.707031 -1.050781 -2.40625 -1 L -2.4375 -2.640625 C -2.738281 -2.640625 -2.96875 -2.578125 -3.125 -2.453125 C -3.289062 -2.328125 -3.375 -2.15625 -3.375 -1.9375 Z M -3.375 -1.9375 "/></g></g></g><g fill="#272727" fill-opacity="1"><g transform="translate(779.851668, 445.843296)"><g><path d="M -3.46875 -3.890625 C -3.46875 -3.910156 -3.445312 -3.921875 -3.40625 -3.921875 C -3.375 -3.921875 -3.359375 -3.910156 -3.359375 -3.890625 C -3.359375 -3.734375 -3.300781 -3.597656 -3.1875 -3.484375 C -3.082031 -3.378906 -2.894531 -3.273438 -2.625 -3.171875 L 0.25 -2.09375 C 0.832031 -1.863281 1.285156 -1.648438 1.609375 -1.453125 C 1.941406 -1.265625 2.175781 -1.066406 2.3125 -0.859375 C 2.457031 -0.648438 2.53125 -0.414062 2.53125 -0.15625 C 2.53125 -0.0078125 2.5 0.101562 2.4375 0.1875 C 2.375 0.28125 2.28125 0.328125 2.15625 0.328125 C 2.0625 0.328125 1.988281 0.296875 1.9375 0.234375 C 1.882812 0.171875 1.859375 0.0976562 1.859375 0.015625 C 1.859375 -0.0664062 1.867188 -0.132812 1.890625 -0.1875 C 1.910156 -0.238281 1.941406 -0.289062 1.984375 -0.34375 C 1.984375 -0.351562 2 -0.382812 2.03125 -0.4375 C 2.0625 -0.5 2.078125 -0.570312 2.078125 -0.65625 C 2.078125 -0.800781 2.015625 -0.9375 1.890625 -1.0625 C 1.765625 -1.1875 1.5625 -1.320312 1.28125 -1.46875 C 1 -1.613281 0.597656 -1.785156 0.078125 -1.984375 L -2.734375 -0.59375 C -2.992188 -0.457031 -3.160156 -0.351562 -3.234375 -0.28125 C -3.316406 -0.207031 -3.359375 -0.113281 -3.359375 0 C -3.359375 0.0078125 -3.375 0.015625 -3.40625 0.015625 C -3.445312 0.015625 -3.46875 0.0078125 -3.46875 0 C -3.46875 -0.132812 -3.46875 -0.238281 -3.46875 -0.3125 L -3.453125 -0.625 L -3.46875 -1.21875 C -3.46875 -1.300781 -3.46875 -1.421875 -3.46875 -1.578125 C -3.46875 -1.585938 -3.445312 -1.59375 -3.40625 -1.59375 C -3.375 -1.59375 -3.359375 -1.585938 -3.359375 -1.578125 C -3.359375 -1.410156 -3.34375 -1.28125 -3.3125 -1.1875 C -3.289062 -1.101562 -3.242188 -1.0625 -3.171875 -1.0625 C -3.140625 -1.0625 -3.085938 -1.078125 -3.015625 -1.109375 L -0.625 -2.265625 L -2.609375 -2.96875 C -2.753906 -3.007812 -2.875 -3.03125 -2.96875 -3.03125 C -3.101562 -3.03125 -3.203125 -2.976562 -3.265625 -2.875 C -3.328125 -2.769531 -3.359375 -2.597656 -3.359375 -2.359375 C -3.359375 -2.347656 -3.375 -2.34375 -3.40625 -2.34375 C -3.445312 -2.34375 -3.46875 -2.347656 -3.46875 -2.359375 C -3.46875 -2.523438 -3.46875 -2.648438 -3.46875 -2.734375 L -3.453125 -3.28125 L -3.46875 -3.59375 C -3.46875 -3.664062 -3.46875 -3.765625 -3.46875 -3.890625 Z M -3.46875 -3.890625 "/></g></g></g><g fill="#272727" fill-opacity="1"><g transform="translate(779.851668, 441.937267)"><g/></g></g><g fill="#272727" fill-opacity="1"><g transform="translate(779.851668, 439.831257)"><g><path d="M 0.109375 -2.09375 C 0.109375 -1.738281 0.0234375 -1.425781 -0.140625 -1.15625 C -0.304688 -0.882812 -0.535156 -0.675781 -0.828125 -0.53125 C -1.117188 -0.382812 -1.4375 -0.3125 -1.78125 -0.3125 C -2.164062 -0.3125 -2.492188 -0.40625 -2.765625 -0.59375 C -3.046875 -0.789062 -3.253906 -1.035156 -3.390625 -1.328125 C -3.523438 -1.628906 -3.59375 -1.9375 -3.59375 -2.25 C -3.59375 -2.601562 -3.503906 -2.910156 -3.328125 -3.171875 C -3.148438 -3.441406 -2.921875 -3.648438 -2.640625 -3.796875 C -2.359375 -3.941406 -2.054688 -4.015625 -1.734375 -4.015625 C -1.359375 -4.015625 -1.03125 -3.925781 -0.75 -3.75 C -0.476562 -3.570312 -0.265625 -3.335938 -0.109375 -3.046875 C 0.0351562 -2.753906 0.109375 -2.4375 0.109375 -2.09375 Z M -0.046875 -2.34375 C -0.046875 -2.65625 -0.160156 -2.894531 -0.390625 -3.0625 C -0.628906 -3.238281 -0.988281 -3.328125 -1.46875 -3.328125 C -1.851562 -3.328125 -2.191406 -3.265625 -2.484375 -3.140625 C -2.773438 -3.023438 -3 -2.863281 -3.15625 -2.65625 C -3.320312 -2.445312 -3.40625 -2.210938 -3.40625 -1.953125 C -3.40625 -1.648438 -3.289062 -1.410156 -3.0625 -1.234375 C -2.84375 -1.066406 -2.507812 -0.984375 -2.0625 -0.984375 C -1.695312 -0.984375 -1.359375 -1.039062 -1.046875 -1.15625 C -0.734375 -1.28125 -0.488281 -1.441406 -0.3125 -1.640625 C -0.132812 -1.847656 -0.046875 -2.082031 -0.046875 -2.34375 Z M -0.046875 -2.34375 "/></g></g></g><g fill="#272727" fill-opacity="1"><g transform="translate(779.851668, 435.502232)"><g><path d="M -6.53125 -2.875 C -6.53125 -3.1875 -6.484375 -3.4375 -6.390625 -3.625 C -6.296875 -3.820312 -6.179688 -3.921875 -6.046875 -3.921875 C -5.953125 -3.921875 -5.875 -3.882812 -5.8125 -3.8125 C -5.757812 -3.75 -5.734375 -3.671875 -5.734375 -3.578125 C -5.734375 -3.492188 -5.75 -3.425781 -5.78125 -3.375 C -5.820312 -3.320312 -5.894531 -3.257812 -6 -3.1875 C -6.125 -3.101562 -6.21875 -3.007812 -6.28125 -2.90625 C -6.34375 -2.8125 -6.375 -2.691406 -6.375 -2.546875 C -6.375 -2.210938 -6.171875 -1.945312 -5.765625 -1.75 C -5.367188 -1.550781 -4.765625 -1.453125 -3.953125 -1.453125 L -3.375 -1.453125 C -3.394531 -1.828125 -3.425781 -2.203125 -3.46875 -2.578125 C -3.46875 -2.597656 -3.445312 -2.613281 -3.40625 -2.625 C -3.363281 -2.632812 -3.316406 -2.640625 -3.265625 -2.640625 C -3.203125 -2.640625 -3.144531 -2.628906 -3.09375 -2.609375 C -3.050781 -2.597656 -3.03125 -2.582031 -3.03125 -2.5625 C -3.113281 -2.25 -3.160156 -1.878906 -3.171875 -1.453125 L -0.734375 -1.453125 C -0.546875 -1.453125 -0.410156 -1.472656 -0.328125 -1.515625 C -0.242188 -1.554688 -0.1875 -1.632812 -0.15625 -1.75 C -0.125 -1.875 -0.109375 -2.066406 -0.109375 -2.328125 C -0.109375 -2.347656 -0.0859375 -2.359375 -0.046875 -2.359375 C -0.015625 -2.359375 0 -2.347656 0 -2.328125 L -0.015625 -1.734375 C -0.015625 -1.609375 -0.015625 -1.414062 -0.015625 -1.15625 L -0.015625 -0.640625 C -0.00390625 -0.554688 0 -0.4375 0 -0.28125 C 0 -0.257812 -0.015625 -0.25 -0.046875 -0.25 C -0.0859375 -0.25 -0.109375 -0.257812 -0.109375 -0.28125 C -0.109375 -0.457031 -0.125 -0.585938 -0.15625 -0.671875 C -0.1875 -0.753906 -0.242188 -0.804688 -0.328125 -0.828125 C -0.410156 -0.859375 -0.546875 -0.875 -0.734375 -0.875 L -2.75 -0.875 C -2.90625 -0.875 -3.015625 -0.859375 -3.078125 -0.828125 C -3.140625 -0.804688 -3.179688 -0.753906 -3.203125 -0.671875 C -3.222656 -0.585938 -3.234375 -0.445312 -3.234375 -0.25 C -3.234375 -0.226562 -3.253906 -0.21875 -3.296875 -0.21875 C -3.335938 -0.21875 -3.359375 -0.226562 -3.359375 -0.25 C -3.359375 -0.488281 -3.382812 -0.648438 -3.4375 -0.734375 C -3.5 -0.816406 -3.609375 -0.863281 -3.765625 -0.875 C -4.742188 -0.90625 -5.445312 -1.082031 -5.875 -1.40625 C -6.3125 -1.738281 -6.53125 -2.226562 -6.53125 -2.875 Z M -6.53125 -2.875 "/></g></g></g><g fill="#272727" fill-opacity="1"><g transform="translate(779.851668, 432.757218)"><g/></g></g><g fill="#272727" fill-opacity="1"><g transform="translate(779.851668, 430.651208)"><g><path d="M 0.109375 -2.078125 C 0.109375 -1.691406 0.0234375 -1.363281 -0.140625 -1.09375 C -0.316406 -0.832031 -0.539062 -0.632812 -0.8125 -0.5 C -1.082031 -0.375 -1.367188 -0.3125 -1.671875 -0.3125 C -2.046875 -0.3125 -2.375 -0.410156 -2.65625 -0.609375 C -2.945312 -0.804688 -3.171875 -1.054688 -3.328125 -1.359375 C -3.484375 -1.671875 -3.5625 -1.988281 -3.5625 -2.3125 C -3.5625 -2.582031 -3.503906 -2.828125 -3.390625 -3.046875 C -3.285156 -3.265625 -3.148438 -3.375 -2.984375 -3.375 C -2.898438 -3.375 -2.828125 -3.34375 -2.765625 -3.28125 C -2.703125 -3.21875 -2.671875 -3.132812 -2.671875 -3.03125 C -2.671875 -2.84375 -2.78125 -2.695312 -3 -2.59375 C -3.125 -2.53125 -3.21875 -2.453125 -3.28125 -2.359375 C -3.34375 -2.273438 -3.375 -2.15625 -3.375 -2 C -3.375 -1.675781 -3.242188 -1.421875 -2.984375 -1.234375 C -2.722656 -1.054688 -2.375 -0.96875 -1.9375 -0.96875 C -1.4375 -0.96875 -1.023438 -1.085938 -0.703125 -1.328125 C -0.378906 -1.578125 -0.21875 -1.957031 -0.21875 -2.46875 C -0.21875 -2.8125 -0.316406 -3.109375 -0.515625 -3.359375 L -0.515625 -3.390625 C -0.515625 -3.398438 -0.503906 -3.410156 -0.484375 -3.421875 C -0.460938 -3.441406 -0.445312 -3.441406 -0.4375 -3.421875 C -0.25 -3.210938 -0.109375 -3 -0.015625 -2.78125 C 0.0664062 -2.570312 0.109375 -2.335938 0.109375 -2.078125 Z M 0.109375 -2.078125 "/></g></g></g><g fill="#272727" fill-opacity="1"><g transform="translate(779.851668, 426.934178)"><g><path d="M 0.109375 -2.09375 C 0.109375 -1.738281 0.0234375 -1.425781 -0.140625 -1.15625 C -0.304688 -0.882812 -0.535156 -0.675781 -0.828125 -0.53125 C -1.117188 -0.382812 -1.4375 -0.3125 -1.78125 -0.3125 C -2.164062 -0.3125 -2.492188 -0.40625 -2.765625 -0.59375 C -3.046875 -0.789062 -3.253906 -1.035156 -3.390625 -1.328125 C -3.523438 -1.628906 -3.59375 -1.9375 -3.59375 -2.25 C -3.59375 -2.601562 -3.503906 -2.910156 -3.328125 -3.171875 C -3.148438 -3.441406 -2.921875 -3.648438 -2.640625 -3.796875 C -2.359375 -3.941406 -2.054688 -4.015625 -1.734375 -4.015625 C -1.359375 -4.015625 -1.03125 -3.925781 -0.75 -3.75 C -0.476562 -3.570312 -0.265625 -3.335938 -0.109375 -3.046875 C 0.0351562 -2.753906 0.109375 -2.4375 0.109375 -2.09375 Z M -0.046875 -2.34375 C -0.046875 -2.65625 -0.160156 -2.894531 -0.390625 -3.0625 C -0.628906 -3.238281 -0.988281 -3.328125 -1.46875 -3.328125 C -1.851562 -3.328125 -2.191406 -3.265625 -2.484375 -3.140625 C -2.773438 -3.023438 -3 -2.863281 -3.15625 -2.65625 C -3.320312 -2.445312 -3.40625 -2.210938 -3.40625 -1.953125 C -3.40625 -1.648438 -3.289062 -1.410156 -3.0625 -1.234375 C -2.84375 -1.066406 -2.507812 -0.984375 -2.0625 -0.984375 C -1.695312 -0.984375 -1.359375 -1.039062 -1.046875 -1.15625 C -0.734375 -1.28125 -0.488281 -1.441406 -0.3125 -1.640625 C -0.132812 -1.847656 -0.046875 -2.082031 -0.046875 -2.34375 Z M -0.046875 -2.34375 "/></g></g></g><g fill="#272727" fill-opacity="1"><g transform="translate(779.851668, 422.605153)"><g><path d="M 0 -0.34375 C 0 -0.332031 -0.015625 -0.328125 -0.046875 -0.328125 C -0.0859375 -0.328125 -0.109375 -0.332031 -0.109375 -0.34375 C -0.109375 -0.570312 -0.144531 -0.722656 -0.21875 -0.796875 C -0.300781 -0.867188 -0.472656 -0.90625 -0.734375 -0.90625 L -5.359375 -0.90625 C -5.578125 -0.90625 -5.734375 -0.882812 -5.828125 -0.84375 C -5.921875 -0.800781 -5.96875 -0.726562 -5.96875 -0.625 C -5.96875 -0.539062 -5.925781 -0.40625 -5.84375 -0.21875 C -5.84375 -0.195312 -5.859375 -0.175781 -5.890625 -0.15625 C -5.929688 -0.144531 -5.953125 -0.148438 -5.953125 -0.171875 L -6.515625 -1.359375 L -6.53125 -1.390625 C -6.53125 -1.410156 -6.519531 -1.429688 -6.5 -1.453125 C -6.476562 -1.484375 -6.457031 -1.5 -6.4375 -1.5 L -0.734375 -1.5 C -0.472656 -1.5 -0.300781 -1.53125 -0.21875 -1.59375 C -0.144531 -1.664062 -0.109375 -1.816406 -0.109375 -2.046875 C -0.109375 -2.054688 -0.0859375 -2.0625 -0.046875 -2.0625 C -0.015625 -2.0625 0 -2.054688 0 -2.046875 C 0 -1.898438 -0.00390625 -1.78125 -0.015625 -1.6875 L -0.015625 -0.6875 C -0.00390625 -0.601562 0 -0.488281 0 -0.34375 Z M 0 -0.34375 "/></g></g></g><g fill="#272727" fill-opacity="1"><g transform="translate(779.851668, 420.265134)"><g><path d="M 0 -0.34375 C 0 -0.332031 -0.015625 -0.328125 -0.046875 -0.328125 C -0.0859375 -0.328125 -0.109375 -0.332031 -0.109375 -0.34375 C -0.109375 -0.570312 -0.144531 -0.722656 -0.21875 -0.796875 C -0.300781 -0.867188 -0.472656 -0.90625 -0.734375 -0.90625 L -5.359375 -0.90625 C -5.578125 -0.90625 -5.734375 -0.882812 -5.828125 -0.84375 C -5.921875 -0.800781 -5.96875 -0.726562 -5.96875 -0.625 C -5.96875 -0.539062 -5.925781 -0.40625 -5.84375 -0.21875 C -5.84375 -0.195312 -5.859375 -0.175781 -5.890625 -0.15625 C -5.929688 -0.144531 -5.953125 -0.148438 -5.953125 -0.171875 L -6.515625 -1.359375 L -6.53125 -1.390625 C -6.53125 -1.410156 -6.519531 -1.429688 -6.5 -1.453125 C -6.476562 -1.484375 -6.457031 -1.5 -6.4375 -1.5 L -0.734375 -1.5 C -0.472656 -1.5 -0.300781 -1.53125 -0.21875 -1.59375 C -0.144531 -1.664062 -0.109375 -1.816406 -0.109375 -2.046875 C -0.109375 -2.054688 -0.0859375 -2.0625 -0.046875 -2.0625 C -0.015625 -2.0625 0 -2.054688 0 -2.046875 C 0 -1.898438 -0.00390625 -1.78125 -0.015625 -1.6875 L -0.015625 -0.6875 C -0.00390625 -0.601562 0 -0.488281 0 -0.34375 Z M 0 -0.34375 "/></g></g></g><g fill="#272727" fill-opacity="1"><g transform="translate(779.851668, 417.925115)"><g><path d="M -0.515625 -3.28125 C -0.515625 -3.289062 -0.503906 -3.300781 -0.484375 -3.3125 C -0.460938 -3.332031 -0.445312 -3.335938 -0.4375 -3.328125 C -0.0703125 -2.929688 0.109375 -2.488281 0.109375 -2 C 0.109375 -1.644531 0.03125 -1.34375 -0.125 -1.09375 C -0.289062 -0.84375 -0.503906 -0.648438 -0.765625 -0.515625 C -1.035156 -0.378906 -1.320312 -0.3125 -1.625 -0.3125 C -1.976562 -0.3125 -2.300781 -0.394531 -2.59375 -0.5625 C -2.894531 -0.738281 -3.128906 -0.972656 -3.296875 -1.265625 C -3.472656 -1.554688 -3.5625 -1.878906 -3.5625 -2.234375 C -3.5625 -2.585938 -3.472656 -2.851562 -3.296875 -3.03125 C -3.117188 -3.21875 -2.863281 -3.3125 -2.53125 -3.3125 C -2.363281 -3.3125 -2.28125 -3.273438 -2.28125 -3.203125 L -2.28125 -0.984375 C -2.144531 -0.972656 -2.039062 -0.96875 -1.96875 -0.96875 C -1.445312 -0.96875 -1.023438 -1.085938 -0.703125 -1.328125 C -0.390625 -1.578125 -0.234375 -1.925781 -0.234375 -2.375 C -0.234375 -2.550781 -0.253906 -2.703125 -0.296875 -2.828125 C -0.347656 -2.953125 -0.421875 -3.097656 -0.515625 -3.265625 Z M -3.375 -1.9375 C -3.375 -1.6875 -3.285156 -1.476562 -3.109375 -1.3125 C -2.941406 -1.15625 -2.707031 -1.050781 -2.40625 -1 L -2.4375 -2.640625 C -2.738281 -2.640625 -2.96875 -2.578125 -3.125 -2.453125 C -3.289062 -2.328125 -3.375 -2.15625 -3.375 -1.9375 Z M -3.375 -1.9375 "/></g></g></g><g fill="#272727" fill-opacity="1"><g transform="translate(779.851668, 414.244089)"><g><path d="M 0.109375 -2.078125 C 0.109375 -1.691406 0.0234375 -1.363281 -0.140625 -1.09375 C -0.316406 -0.832031 -0.539062 -0.632812 -0.8125 -0.5 C -1.082031 -0.375 -1.367188 -0.3125 -1.671875 -0.3125 C -2.046875 -0.3125 -2.375 -0.410156 -2.65625 -0.609375 C -2.945312 -0.804688 -3.171875 -1.054688 -3.328125 -1.359375 C -3.484375 -1.671875 -3.5625 -1.988281 -3.5625 -2.3125 C -3.5625 -2.582031 -3.503906 -2.828125 -3.390625 -3.046875 C -3.285156 -3.265625 -3.148438 -3.375 -2.984375 -3.375 C -2.898438 -3.375 -2.828125 -3.34375 -2.765625 -3.28125 C -2.703125 -3.21875 -2.671875 -3.132812 -2.671875 -3.03125 C -2.671875 -2.84375 -2.78125 -2.695312 -3 -2.59375 C -3.125 -2.53125 -3.21875 -2.453125 -3.28125 -2.359375 C -3.34375 -2.273438 -3.375 -2.15625 -3.375 -2 C -3.375 -1.675781 -3.242188 -1.421875 -2.984375 -1.234375 C -2.722656 -1.054688 -2.375 -0.96875 -1.9375 -0.96875 C -1.4375 -0.96875 -1.023438 -1.085938 -0.703125 -1.328125 C -0.378906 -1.578125 -0.21875 -1.957031 -0.21875 -2.46875 C -0.21875 -2.8125 -0.316406 -3.109375 -0.515625 -3.359375 L -0.515625 -3.390625 C -0.515625 -3.398438 -0.503906 -3.410156 -0.484375 -3.421875 C -0.460938 -3.441406 -0.445312 -3.441406 -0.4375 -3.421875 C -0.25 -3.210938 -0.109375 -3 -0.015625 -2.78125 C 0.0664062 -2.570312 0.109375 -2.335938 0.109375 -2.078125 Z M 0.109375 -2.078125 "/></g></g></g><g fill="#272727" fill-opacity="1"><g transform="translate(779.851668, 410.527059)"><g><path d="M -0.5 -2.828125 C -0.5 -2.847656 -0.484375 -2.863281 -0.453125 -2.875 C -0.421875 -2.882812 -0.398438 -2.878906 -0.390625 -2.859375 C -0.210938 -2.640625 -0.0820312 -2.4375 0 -2.25 C 0.0703125 -2.070312 0.109375 -1.882812 0.109375 -1.6875 C 0.109375 -1.4375 0.0507812 -1.226562 -0.0625 -1.0625 C -0.1875 -0.894531 -0.378906 -0.8125 -0.640625 -0.8125 L -2.75 -0.8125 C -2.894531 -0.8125 -3 -0.796875 -3.0625 -0.765625 C -3.132812 -0.742188 -3.179688 -0.703125 -3.203125 -0.640625 C -3.222656 -0.578125 -3.234375 -0.476562 -3.234375 -0.34375 C -3.234375 -0.320312 -3.253906 -0.3125 -3.296875 -0.3125 C -3.335938 -0.3125 -3.359375 -0.320312 -3.359375 -0.34375 C -3.367188 -0.59375 -3.429688 -0.796875 -3.546875 -0.953125 C -3.671875 -1.117188 -3.84375 -1.21875 -4.0625 -1.25 C -4.082031 -1.257812 -4.09375 -1.285156 -4.09375 -1.328125 C -4.09375 -1.367188 -4.082031 -1.390625 -4.0625 -1.390625 L -3.375 -1.390625 C -3.382812 -1.671875 -3.414062 -2.082031 -3.46875 -2.625 C -3.46875 -2.632812 -3.445312 -2.644531 -3.40625 -2.65625 C -3.363281 -2.675781 -3.316406 -2.6875 -3.265625 -2.6875 C -3.203125 -2.6875 -3.144531 -2.675781 -3.09375 -2.65625 C -3.050781 -2.632812 -3.03125 -2.613281 -3.03125 -2.59375 C -3.113281 -2.257812 -3.160156 -1.859375 -3.171875 -1.390625 L -0.953125 -1.390625 C -0.472656 -1.390625 -0.234375 -1.625 -0.234375 -2.09375 C -0.234375 -2.34375 -0.316406 -2.582031 -0.484375 -2.8125 Z M -0.5 -2.828125 "/></g></g></g><g fill="#272727" fill-opacity="1"><g transform="translate(779.851668, 407.485037)"><g><path d="M -4.578125 -1.234375 C -4.578125 -1.097656 -4.613281 -0.992188 -4.6875 -0.921875 C -4.757812 -0.847656 -4.863281 -0.8125 -5 -0.8125 C -5.113281 -0.8125 -5.207031 -0.847656 -5.28125 -0.921875 C -5.351562 -0.992188 -5.390625 -1.097656 -5.390625 -1.234375 C -5.390625 -1.359375 -5.351562 -1.457031 -5.28125 -1.53125 C -5.207031 -1.601562 -5.113281 -1.640625 -5 -1.640625 C -4.863281 -1.640625 -4.757812 -1.601562 -4.6875 -1.53125 C -4.613281 -1.457031 -4.578125 -1.359375 -4.578125 -1.234375 Z M 0 -0.453125 C 0 -0.441406 -0.015625 -0.4375 -0.046875 -0.4375 C -0.0859375 -0.4375 -0.109375 -0.441406 -0.109375 -0.453125 C -0.109375 -0.679688 -0.144531 -0.832031 -0.21875 -0.90625 C -0.300781 -0.976562 -0.472656 -1.015625 -0.734375 -1.015625 L -2.40625 -1.015625 C -2.613281 -1.015625 -2.765625 -0.988281 -2.859375 -0.9375 C -2.953125 -0.894531 -3 -0.820312 -3 -0.71875 C -3 -0.613281 -2.957031 -0.484375 -2.875 -0.328125 L -2.875 -0.3125 C -2.875 -0.289062 -2.890625 -0.273438 -2.921875 -0.265625 C -2.953125 -0.253906 -2.972656 -0.257812 -2.984375 -0.28125 L -3.546875 -1.46875 L -3.5625 -1.515625 C -3.5625 -1.523438 -3.550781 -1.539062 -3.53125 -1.5625 C -3.507812 -1.59375 -3.488281 -1.609375 -3.46875 -1.609375 C -3.425781 -1.609375 -3.304688 -1.601562 -3.109375 -1.59375 C -2.910156 -1.582031 -2.675781 -1.578125 -2.40625 -1.578125 L -0.734375 -1.578125 C -0.554688 -1.578125 -0.421875 -1.59375 -0.328125 -1.625 C -0.242188 -1.65625 -0.1875 -1.707031 -0.15625 -1.78125 C -0.125 -1.863281 -0.109375 -1.984375 -0.109375 -2.140625 C -0.109375 -2.148438 -0.0859375 -2.15625 -0.046875 -2.15625 C -0.015625 -2.15625 0 -2.148438 0 -2.140625 C 0 -1.984375 -0.00390625 -1.863281 -0.015625 -1.78125 L -0.015625 -0.796875 C -0.00390625 -0.710938 0 -0.597656 0 -0.453125 Z M 0 -0.453125 "/></g></g></g><g fill="#272727" fill-opacity="1"><g transform="translate(779.851668, 405.046015)"><g><path d="M 0.109375 -2.09375 C 0.109375 -1.738281 0.0234375 -1.425781 -0.140625 -1.15625 C -0.304688 -0.882812 -0.535156 -0.675781 -0.828125 -0.53125 C -1.117188 -0.382812 -1.4375 -0.3125 -1.78125 -0.3125 C -2.164062 -0.3125 -2.492188 -0.40625 -2.765625 -0.59375 C -3.046875 -0.789062 -3.253906 -1.035156 -3.390625 -1.328125 C -3.523438 -1.628906 -3.59375 -1.9375 -3.59375 -2.25 C -3.59375 -2.601562 -3.503906 -2.910156 -3.328125 -3.171875 C -3.148438 -3.441406 -2.921875 -3.648438 -2.640625 -3.796875 C -2.359375 -3.941406 -2.054688 -4.015625 -1.734375 -4.015625 C -1.359375 -4.015625 -1.03125 -3.925781 -0.75 -3.75 C -0.476562 -3.570312 -0.265625 -3.335938 -0.109375 -3.046875 C 0.0351562 -2.753906 0.109375 -2.4375 0.109375 -2.09375 Z M -0.046875 -2.34375 C -0.046875 -2.65625 -0.160156 -2.894531 -0.390625 -3.0625 C -0.628906 -3.238281 -0.988281 -3.328125 -1.46875 -3.328125 C -1.851562 -3.328125 -2.191406 -3.265625 -2.484375 -3.140625 C -2.773438 -3.023438 -3 -2.863281 -3.15625 -2.65625 C -3.320312 -2.445312 -3.40625 -2.210938 -3.40625 -1.953125 C -3.40625 -1.648438 -3.289062 -1.410156 -3.0625 -1.234375 C -2.84375 -1.066406 -2.507812 -0.984375 -2.0625 -0.984375 C -1.695312 -0.984375 -1.359375 -1.039062 -1.046875 -1.15625 C -0.734375 -1.28125 -0.488281 -1.441406 -0.3125 -1.640625 C -0.132812 -1.847656 -0.046875 -2.082031 -0.046875 -2.34375 Z M -0.046875 -2.34375 "/></g></g></g><g fill="#272727" fill-opacity="1"><g transform="translate(779.851668, 400.71699)"><g><path d="M -0.109375 -4.484375 C -0.109375 -4.503906 -0.0859375 -4.515625 -0.046875 -4.515625 C -0.015625 -4.515625 0 -4.503906 0 -4.484375 C 0 -4.328125 -0.00390625 -4.207031 -0.015625 -4.125 L -0.015625 -3.15625 C -0.00390625 -3.070312 0 -2.957031 0 -2.8125 C 0 -2.800781 -0.015625 -2.796875 -0.046875 -2.796875 C -0.0859375 -2.796875 -0.109375 -2.800781 -0.109375 -2.8125 C -0.109375 -2.96875 -0.125 -3.082031 -0.15625 -3.15625 C -0.1875 -3.238281 -0.242188 -3.289062 -0.328125 -3.3125 C -0.421875 -3.34375 -0.554688 -3.359375 -0.734375 -3.359375 L -2.15625 -3.359375 C -2.507812 -3.359375 -2.765625 -3.289062 -2.921875 -3.15625 C -3.085938 -3.03125 -3.171875 -2.828125 -3.171875 -2.546875 C -3.171875 -2.367188 -3.125 -2.1875 -3.03125 -2 C -2.945312 -1.820312 -2.820312 -1.660156 -2.65625 -1.515625 L -0.734375 -1.515625 C -0.554688 -1.515625 -0.421875 -1.523438 -0.328125 -1.546875 C -0.242188 -1.578125 -0.1875 -1.628906 -0.15625 -1.703125 C -0.125 -1.785156 -0.109375 -1.90625 -0.109375 -2.0625 C -0.109375 -2.082031 -0.0859375 -2.09375 -0.046875 -2.09375 C -0.015625 -2.09375 0 -2.082031 0 -2.0625 C 0 -1.914062 -0.00390625 -1.796875 -0.015625 -1.703125 L -0.015625 -0.734375 C -0.00390625 -0.648438 0 -0.535156 0 -0.390625 C 0 -0.378906 -0.015625 -0.375 -0.046875 -0.375 C -0.0859375 -0.375 -0.109375 -0.378906 -0.109375 -0.390625 C -0.109375 -0.546875 -0.125 -0.660156 -0.15625 -0.734375 C -0.1875 -0.816406 -0.242188 -0.867188 -0.328125 -0.890625 C -0.421875 -0.921875 -0.554688 -0.9375 -0.734375 -0.9375 L -2.5 -0.9375 C -2.695312 -0.9375 -2.835938 -0.910156 -2.921875 -0.859375 C -3.015625 -0.816406 -3.0625 -0.738281 -3.0625 -0.625 C -3.0625 -0.539062 -3.015625 -0.382812 -2.921875 -0.15625 L -2.921875 -0.140625 C -2.921875 -0.117188 -2.929688 -0.101562 -2.953125 -0.09375 C -2.984375 -0.0820312 -3.007812 -0.0859375 -3.03125 -0.109375 L -3.546875 -1.1875 L -3.5625 -1.234375 C -3.5625 -1.296875 -3.492188 -1.351562 -3.359375 -1.40625 C -3.222656 -1.46875 -3.039062 -1.503906 -2.8125 -1.515625 C -3.332031 -1.953125 -3.59375 -2.410156 -3.59375 -2.890625 C -3.59375 -3.222656 -3.492188 -3.476562 -3.296875 -3.65625 C -3.109375 -3.84375 -2.835938 -3.9375 -2.484375 -3.9375 L -0.734375 -3.9375 C -0.554688 -3.9375 -0.421875 -3.945312 -0.328125 -3.96875 C -0.242188 -4 -0.1875 -4.050781 -0.15625 -4.125 C -0.125 -4.207031 -0.109375 -4.328125 -0.109375 -4.484375 Z M -0.109375 -4.484375 "/></g></g></g><g fill="#272727" fill-opacity="1"><g transform="translate(779.851668, 396.045958)"><g><path d="M -2.953125 -0.9375 C -2.742188 -0.9375 -2.578125 -1 -2.453125 -1.125 C -2.328125 -1.257812 -2.195312 -1.460938 -2.0625 -1.734375 C -1.957031 -1.941406 -1.863281 -2.101562 -1.78125 -2.21875 C -1.707031 -2.34375 -1.601562 -2.445312 -1.46875 -2.53125 C -1.34375 -2.613281 -1.191406 -2.65625 -1.015625 -2.65625 C -0.703125 -2.65625 -0.4375 -2.539062 -0.21875 -2.3125 C -0.0078125 -2.082031 0.09375 -1.769531 0.09375 -1.375 C 0.09375 -1.21875 0.0703125 -1.066406 0.03125 -0.921875 C -0.0078125 -0.785156 -0.078125 -0.644531 -0.171875 -0.5 C -0.191406 -0.457031 -0.226562 -0.4375 -0.28125 -0.4375 L -1.015625 -0.421875 C -1.023438 -0.421875 -1.03125 -0.4375 -1.03125 -0.46875 C -1.039062 -0.5 -1.035156 -0.519531 -1.015625 -0.53125 C -0.710938 -0.632812 -0.476562 -0.78125 -0.3125 -0.96875 C -0.15625 -1.164062 -0.078125 -1.382812 -0.078125 -1.625 C -0.078125 -1.800781 -0.117188 -1.9375 -0.203125 -2.03125 C -0.285156 -2.125 -0.410156 -2.171875 -0.578125 -2.171875 C -0.816406 -2.171875 -1 -2.101562 -1.125 -1.96875 C -1.257812 -1.832031 -1.394531 -1.632812 -1.53125 -1.375 C -1.632812 -1.164062 -1.722656 -1.003906 -1.796875 -0.890625 C -1.878906 -0.773438 -1.984375 -0.675781 -2.109375 -0.59375 C -2.234375 -0.519531 -2.390625 -0.484375 -2.578125 -0.484375 C -2.898438 -0.484375 -3.144531 -0.601562 -3.3125 -0.84375 C -3.488281 -1.082031 -3.578125 -1.375 -3.578125 -1.71875 C -3.578125 -1.957031 -3.535156 -2.179688 -3.453125 -2.390625 C -3.421875 -2.441406 -3.382812 -2.46875 -3.34375 -2.46875 C -3.21875 -2.46875 -3.117188 -2.46875 -3.046875 -2.46875 L -2.65625 -2.453125 C -2.644531 -2.453125 -2.640625 -2.429688 -2.640625 -2.390625 C -2.640625 -2.359375 -2.644531 -2.34375 -2.65625 -2.34375 C -2.84375 -2.34375 -3.015625 -2.242188 -3.171875 -2.046875 C -3.328125 -1.847656 -3.40625 -1.632812 -3.40625 -1.40625 C -3.40625 -1.257812 -3.367188 -1.144531 -3.296875 -1.0625 C -3.222656 -0.976562 -3.109375 -0.9375 -2.953125 -0.9375 Z M -2.953125 -0.9375 "/></g></g></g></svg>