<svg width="209" height="432" viewBox="0 0 209 432" fill="none" xmlns="http://www.w3.org/2000/svg">
<mask id="mask0_4_154" style="mask-type:luminance" maskUnits="userSpaceOnUse" x="0" y="0" width="209" height="432">
<path d="M0.510376 0H209V432H0.510376V0Z" fill="white"/>
</mask>
<g mask="url(#mask0_4_154)">
<path fill-rule="evenodd" clip-rule="evenodd" d="M102.25 390.271L102.375 388.412C105.25 386.953 106.063 387.724 105.406 388.667C105.245 388.896 104.776 389.162 104.526 389.339C103.719 389.922 103.432 390.292 102.25 390.271ZM114.438 431.703C116.536 431.776 117.109 431.896 116.063 429.224C115.979 429.01 115.776 428.412 115.693 428.281C115.406 427.844 115.568 427.958 115.026 427.76C114.198 428.745 114.646 428.5 114.63 429.818C114.62 430.901 114.302 430.547 114.438 431.703ZM154.635 315.656C155.729 315.599 155.453 315.51 155.953 314.74C157.661 312.125 158.844 311.057 160.464 308.964C161.146 308.078 160.573 306.453 160.031 305.859C157.635 304.422 153.745 312.943 154.401 315.135L154.635 315.656ZM189.156 195.724C189.656 194.057 190.938 191.833 191.578 190.245C191.297 190 191.766 190.26 191.083 189.854C189.047 188.662 186.547 194.693 186.141 195.76C184.51 195.87 183.839 195.406 182.208 195.458C180.505 195.516 180.016 195.755 178.703 195.12C177.714 196.49 177.609 197.224 179.359 198.734C180.271 198.599 179.604 198.49 180.682 198.323L185.401 198.037C184.88 199.703 183.849 201.63 185.052 203.063C185.469 202.781 186.339 201.797 186.604 201.224L187.339 199.307C187.844 198.13 188.068 197.875 189.49 197.089C191.75 195.839 191.25 196.438 191.115 195.422L189.156 195.724ZM119.755 419.906L121.578 419.313C122.333 416.771 122.031 417.917 121.198 415.578C119.505 410.813 120.13 412.047 119.068 407.771C118.578 405.802 118.318 407.214 116.792 405.724C116.099 405.047 117.521 405.885 116.526 405.495C116.219 406.354 116.443 405.729 115.823 405.792C115.276 405.849 115.604 405.193 115.104 406.063C114.745 406.677 115.193 406.849 115.198 406.854C115.719 407.76 115.266 406.344 115.693 407.479C116.026 408.354 115.776 407.552 115.49 408.146C115.479 408.172 115.443 408.234 115.432 408.26C115.417 408.292 115.396 408.359 115.385 408.385C114.755 410.167 115.063 408.208 114.594 409.474C114.438 409.932 114.458 409.193 114.661 409.714C115.307 411.349 114.526 412.016 115.318 414.932C115.792 416.667 116.031 418.88 117.771 419.656C118.411 419.943 119.068 420.078 119.755 419.906ZM105.141 345.646C107.953 345.005 106.474 343.688 108.526 344.766C108.313 343.833 108.214 344.313 108.464 343.906C109.766 345.854 109.068 345.359 109.891 345.266C109.5 345.484 109.24 345.526 108.823 345.719C108.99 347.38 108.797 345.719 109.26 346.818C108.203 347.13 109.26 346.76 107.807 346.615C107.771 346.667 107.75 346.698 107.74 346.797C107.734 346.891 107.693 346.932 107.682 346.974C107.505 347.604 107.594 347.729 107.271 348.104C106.542 348.948 105.615 348.557 105.115 349.016C104.391 349.682 104.854 349.849 103.87 350.625C103.229 351.13 102.745 351.495 102.234 351.833C100.297 353.12 95.7917 353.781 94.4584 354.901C93.625 354.344 93.2188 353.25 93.1146 352.063C96.5521 350.74 94.2761 351.287 96.474 350.443C96.5625 350.406 96.8959 350.271 96.9688 350.25C97.4219 350.13 97.7084 350.135 98.0209 350.287C98.7969 350.662 98.1407 350.391 99.0521 351.62C99.7448 350.776 100.208 350.896 100.578 349.557C101.01 347.969 100.969 348.135 101.964 346.974C103.297 345.417 102.885 346.484 103.797 345.76L104.271 345.13C104.302 345.094 104.333 345.037 104.359 345L104.552 344.755C105.26 344.016 106.234 344.094 106.906 344.01C106.344 344.964 105.932 344.448 105.141 345.646ZM106.823 334.859C107.953 335.24 107.547 333.729 109.141 334.396C108.75 335.344 107.479 335.552 106.63 335.88C105.557 336.297 104.786 336.75 103.76 337.198C102.964 337.542 102.271 338.281 101.156 338.724C100.068 339.156 99.1198 339.677 97.9167 339.745C98.3073 338.667 99.1146 338.578 100.13 338.099C101.198 337.599 101.661 336.948 102.594 336.635C104.469 336.016 105.76 333.76 107.438 334.089L106.823 334.859ZM108.036 330.521C109.531 330.385 110.859 329.287 112.354 329.068L111.484 330.234C110.906 330.641 109.161 331.396 108.172 332.182C107.427 332.776 107.182 333.229 106.172 333.656C104.589 334.323 104.583 333.646 104.214 335.422C101.969 335.162 102.849 335.667 101.219 336.375C98.7709 337.438 100.115 337.354 98.2292 338.005C97.2604 338.339 97.7292 338.271 96.9375 338.87C96.3334 339.323 96.1198 339.276 95.4115 339.5L94.0052 340.354C93.5365 340.688 92.9792 340.927 92.3334 340.896C92.1615 338.938 93.6407 338.615 94.7188 337.958C97.9011 336.01 97.1042 336.75 99.3646 335.641L101.943 334.037C103.828 332.021 104.958 332.547 105.401 332.188C106.313 331.448 104.25 332.135 107.755 330.203C108.776 329.635 109.875 329.229 110.656 328.516C111.438 327.802 115.354 325.214 116.427 324.922C116.339 325.469 116.25 326.026 116.125 326.349C115.885 326.953 115.484 327.177 115.458 327.198L114.24 327.974C112.615 328.49 113.073 327.922 110.323 329.276L108.552 330.135C108.5 330.167 108.339 330.287 108.292 330.318L108.036 330.521ZM100.854 331.109L105.771 327.787C108.693 326.354 106.969 327 108.188 326.25L112.552 324.073C113.344 323.802 113.901 323.396 114.411 324.359L102.979 330.25C102.021 330.755 102.255 330.953 100.854 331.109ZM87.7032 337.651L85.7292 331.734C85.3021 330.537 85.198 329.516 86.3698 329.656C86.9792 329.729 86.4896 329.568 86.9115 329.932L87.6771 330.781L88.1875 329.912C88.4427 329.615 88.349 329.745 88.599 329.516C88.4896 331.042 87.9688 331.255 87.1511 332.016C88.0625 332.776 88.0157 332.219 89.2084 332.297L89.5365 332.99C89.5573 333.026 89.6042 333.094 89.6459 333.141C90.4115 332.542 90.4427 333.719 91.4532 332.099C91.8854 331.406 92.4896 330.948 92.9792 330.313C94.198 328.724 92.7396 330.167 94.5 328.547L95.9792 326.578C95.198 326.604 93.1667 327.255 92.7084 327.542L91.2604 326.109L92.7136 324.589C93.2813 325.625 92.5521 325.109 93.3646 325.443V325.229C93.2761 324.516 92.8646 325.531 93.2969 324.5C93.7344 323.474 93.4948 324.359 93.6302 324.365L94.3125 324.448C96.4323 324.271 95.1771 323.776 95.5625 323.047C95.5938 323.089 95.625 323.115 95.6407 323.188C95.6563 323.287 95.7657 323.412 95.8021 323.458C96.0157 323.766 95.8386 323.641 96.2084 323.948C97.1198 323.75 96.6354 323.818 97.6615 323.802C98.849 323.781 98.0104 323.917 98.7136 323.349C99.2865 322.88 100.375 322.552 100.729 321.953C100.12 321.615 99.349 321.844 98.724 322.026C99.099 320.068 100.755 320.979 101.729 320.594C101.401 321.599 101.875 320.62 101.083 321.464C101.943 321.354 101.88 320.859 103.021 320.641C105.833 320.104 106.161 318.901 109.188 317.844L115.76 315.417C116.307 315.307 117.589 315.625 118.016 315.828C117.974 316.953 117.563 320.406 116.656 320.984L109.974 324.141C109.026 324.62 108.656 324.927 107.911 325.359L106.849 325.849C106.375 326.12 106.208 326.552 104.901 327.177C101.667 328.719 103.729 328.526 100.917 329.542C100.469 329.708 100.927 329.49 100.328 329.813C100.031 329.974 100.036 329.974 99.7865 330.135L90.8073 335.802C89.5261 336.573 90.3282 335.615 89.0886 336.932C88.6459 337.406 88.3542 337.505 87.7032 337.651ZM96.0521 317.5C96.2084 317.089 96.3542 317.026 97.1407 316.563L104.969 312.76C107.37 311.573 107.661 311.995 108.526 312.255C108.281 313.208 108.776 312.438 108.078 313.083L99.198 316.443C98.7865 316.531 99.0573 316.365 98.4844 316.547C97.9792 316.703 97.4063 317.193 96.0521 317.5ZM124.047 314.234C127.792 313.052 126.641 313.589 129.391 313.563C128.76 315.333 126.094 315.75 122.906 317.609C122.125 318.068 119.833 319.76 118.76 319.776C118.766 318.766 119.391 316.839 119.734 315.563C120.047 314.396 119.573 314.755 120.844 314.813C120.073 314.198 120.234 314.745 120.146 314.026C121.203 313.339 121.859 313.339 123.255 313.052C124.323 312.828 125.141 312.26 126.495 312.037L125.432 313.313C124.979 313.703 124.578 313.781 124.047 314.234ZM84.1042 310.818C85.0052 310.599 84.75 310.516 85.8542 310.448C85.4532 311.49 85.8646 310.917 85.6927 311.693C85.5261 312.479 85.7865 312.255 84.8854 312.365C84.2917 312.443 84.4948 312.25 83.7552 312.396C83.7136 312.406 83.6459 312.427 83.6042 312.438C82.5 312.698 82.6042 312.708 82.1094 311.99C81.1511 310.604 82.1615 309.833 83.2136 309.365C84.3334 308.865 85.2813 307.854 86.8907 307.167C87.8282 306.766 88.0313 306.688 88.7865 306.224C90.1667 305.385 93.349 303.787 94.9115 303.557C94.323 304.537 93.3282 304.734 92.224 305.318C91.6302 305.635 91.9844 305.448 91.5677 305.729L90.9115 306.172C90.4063 306.51 90.0052 306.745 89.4271 307.094L85.3334 309.557C84.6927 309.927 84.3125 309.917 84.1042 310.818ZM121.365 297.646L108.151 303.292C107.688 303.537 107.443 303.651 106.984 303.875L105.651 304.479C103.615 305.151 98.0938 308.287 95.6355 309.557L91.8802 311.5C90.7292 312.026 91.6667 311.787 90.7969 312.38C89.8802 313.01 89.7084 312.662 88.4584 313.75C87.3125 314.755 82.7084 318.109 81.5573 318.313C81.7292 317.328 81.8282 317.391 82.4375 316.719C82.625 316.516 82.5104 316.589 82.7188 316.359C83.0365 316.005 82.7917 316.162 83.3177 315.885C83.0261 315.651 82.8177 315.693 82.5782 315.172C82.7969 314.755 82.6927 314.995 82.7448 314.516L84.0782 314.177C82.4167 314.313 83.5886 314.188 83.1719 313.859C83.4271 313.573 83.3125 313.74 83.6094 313.49C84.2344 312.974 83.8177 313.359 83.6615 312.484C85.3646 312.469 86.1094 312.885 86.4063 310.797C86.4115 310.76 86.4115 310.682 86.4271 310.63L87.4167 310.234C86.9219 310.208 87.3177 310.349 86.974 310.141C87.3959 308.88 88.7032 308.604 89.9479 308.646C90.5834 308.672 90.9323 308.245 91.3021 307.87C92.0834 307.073 91.75 307.328 93.1459 307.12C93.1771 307.177 93.2188 307.214 93.2292 307.297L93.1719 307.547C94.6615 307.234 94.3698 306.901 96.3959 306.901L89.5886 311.641C89.0261 312.01 87.9792 312.203 87.625 312.797C87.7292 312.573 87.0625 313.037 88.0261 312.438C88.3334 312.25 88.375 312.245 88.7813 312.073C89.724 311.677 90.1511 311.156 91.0052 310.781L93.3646 309.453C94.0938 308.927 93.8125 309.068 94.7344 308.635L95.3386 308.344C95.3959 308.318 95.4532 308.297 95.5052 308.276L97.6146 306.729C97.9792 306.359 98.6042 306.026 98.948 305.88C97.4115 306.609 96.5 305.787 95.3177 306.615C94.6511 307.083 94.1667 307.203 93.2084 307.229C93.8021 305.818 94.6719 306.083 96.0157 305.516C96.4584 305.328 96.5417 305.219 97.0834 305.052L99.1094 304.234C100.042 303.891 100.313 303.885 101.135 303.448C101.578 303.214 101.208 303.396 101.547 303.208L103.406 302.219C103.88 302.021 104.078 301.708 104.859 301.448C106.271 300.979 105.698 301.771 106.974 301.182C108.313 300.563 107.333 300.146 108.786 300.604C108.568 300.297 108.443 301.307 108.724 300.26C108.802 299.948 108.708 300.01 109.036 299.797C109.667 299.375 109.818 299.62 110.651 299.547C111.807 299.448 111.75 298.734 112.682 298.349L118.094 297.057C118.542 296.156 118.302 296.12 119.724 295.526C120.203 295.323 120.24 295.406 120.63 295.26L119.547 294.823L120.099 294.401C120.411 294.203 120.427 294.26 120.766 294C121.583 293.375 120.938 293.49 122.188 293.182L121.365 297.646ZM123.573 295.021C123.411 294.104 123.224 293.276 124.219 293.146C124.583 293.688 124.432 293.401 124.328 294.229L125.818 294.005C125.609 294.5 125.682 295.125 123.573 295.021ZM117.604 293.818C117.656 293.771 117.74 293.651 117.776 293.703C117.807 293.755 117.901 293.62 117.943 293.599L119.021 293.302C119.557 293.193 120.031 293.057 120.495 292.854C120.198 292.662 120.62 292.75 120.026 292.703C118.776 292.589 118.089 293.708 115.896 292.917C115.818 292.891 115.766 292.865 115.698 292.839L116.313 292.365C116.906 292.224 116.833 292.198 117.333 292.068C118.026 291.891 118.62 292.01 119.359 291.76C119.104 290.792 119.401 291.391 118.109 290.938L117.526 290.667C118.365 289.922 118.813 290.292 120.005 289.891C121.266 289.464 121.099 289.151 122.797 289.339C122.26 290.99 122.911 292.526 121.458 293.151C120.833 293.422 120.057 293.49 119.401 293.776C118.448 294.193 118.568 294.49 117.604 293.818ZM151.198 283.135C152.984 283.104 153.188 283.026 154.635 282.734C154.76 283.688 154.307 284.349 153.578 285.443C153.161 286.063 152.313 287.167 152.224 287.641C151.135 286.833 152.182 288.328 151.802 286.776C151.089 283.849 151.922 285.266 151.344 283.568L151.198 283.135ZM106.583 287.948C106.599 288.458 107.12 288.245 106.396 288.563C105.401 289 105.823 288.38 105.328 289.354C105.854 289.667 105.792 289.13 106.188 289.354L105.318 290.448C105.359 290.49 105.438 290.484 105.458 290.568L106.24 291.682C106.245 291.703 106.255 291.766 106.276 291.802L107.219 291.234C107.635 291.151 107.891 291.38 108.245 291.568L108.375 291.151C108.745 290.776 108.745 291.516 109.12 290.656C109.974 291.349 109.938 291.25 111.099 290.896L111.073 291.953C110.62 291.912 109.734 291.412 108.865 291.979C108.875 292.672 108.922 292.552 109.063 293.125C110.427 293.031 109.443 293.073 110.24 292.531C110.891 292.083 109.911 292.5 110.458 292.458L112.13 291.922C113.521 291.182 115.026 290.917 116.656 291.005C116.307 291.63 116.75 291.083 116.198 291.615C115.984 291.818 115.979 291.849 115.661 291.974C113.974 292.641 115.688 291.313 114.635 292.031C114.005 292.344 114.401 292.333 113.318 293.115C112.958 293.375 112.974 293.453 112.604 293.714C112.438 293.833 112.339 293.87 112.198 293.964C109.906 295.479 111.292 293.807 107.016 295.568L101.057 298.094C100.573 298.292 100.974 298.068 100.604 298.333C100.016 298.755 99.9584 299.281 99.0521 299.135C98.1563 298.99 99.0573 298.901 98.4636 298.771L96.2084 298.703C95.8177 300.037 95.5365 299.443 93.2604 300.427L90.9063 301.375C90.3334 301.547 89.8959 301.396 89.4271 301.656C88.75 302.031 89.3021 302.38 87.6354 302.917C88.323 303.083 88.7292 302.339 89.3802 302.146C89.6875 302.052 90.0313 302.01 90.3021 301.917C90.3438 301.969 90.4011 301.99 90.4167 302.089L90.7136 302.547C90.875 302.818 90.8073 302.771 90.9584 303L95.7344 301.099C96.8125 300.75 98.5938 300.776 99.7084 300.583C100.984 300.359 99.9115 300.505 100.563 300.266C101.771 299.813 100.563 300.255 101.422 300.109L103.719 299.229C104.672 298.635 103.667 299.328 104.359 298.594L105.448 297.521C106.281 296.547 107.745 296.719 108.896 296.328C109.75 296.037 109.807 296.031 110.776 295.792C111.661 295.573 111.573 295.391 112.313 295.156C113.594 294.76 114.651 294.807 115.786 294.016C116.24 293.698 115.641 293.719 116.568 293.641C117.422 293.573 117.625 293.667 117.536 294.182C117.526 294.24 117.5 294.292 117.484 294.307C116.74 295.073 117.938 294.151 117.297 294.5C116.823 294.76 116.953 294.573 116.661 294.604C116.151 294.667 115.99 294.875 115.557 295.141C114.599 295.729 113.797 295.75 112.62 296.182C111.505 296.599 111.016 296.99 110.182 297.438C108.969 298.089 106.12 298.912 104.599 299.526L101.943 300.813C101.068 301.24 100.297 301.432 99.3698 301.927C98.849 302.208 98.5782 302.412 98.0209 302.594L96.8855 302.734C96.4584 302.672 96.5261 302.672 96.3177 302.552C97.3854 301.958 97.6719 302.271 98.4271 301.38C97.3698 301.396 96.9375 301.526 96.0938 301.885C95.25 302.245 94.6563 302.302 93.849 302.76C91.5365 304.078 88.2709 305.448 85.7552 306.479C84.974 306.802 84.5469 307.037 83.8386 307.401C81.073 308.844 81.7709 307.823 81.3646 305.026C80.724 300.552 82.75 303.12 83.7761 300.948C82.9844 300.609 81.6927 301.677 81.1719 301.787C81.0104 300.234 82.2969 300.901 83.4688 299.807L85.8282 298.807C86.7084 298.74 86.1823 298.615 86.7344 299.13L84.2136 300.073C85.2344 300.979 86.0521 300.219 87.3854 300.26C88.1459 300.287 89.1615 299.839 89.8386 299.406C90.5886 298.932 89.5209 299.25 90.75 298.927C93.3073 298.26 91.3594 299.042 94.4115 297.787C94.974 297.552 97.5886 296.698 98.1563 296.792C97.948 295.698 97.5782 295.797 97.3125 294.807C96.4115 295.422 97.198 295.589 95.7813 295.255C96.5417 293.422 95.448 293.609 97.5209 293.698C97.5521 293.656 97.5938 293.547 97.6042 293.578L98.25 292.854C97.948 292.13 98.2032 292.745 97.9896 292.396C97.1042 290.943 98.2813 293.141 97.7448 292.01L98.7657 291.807C98.5469 292.443 98.625 292.495 98.8282 293.094C98.8386 293.135 98.8646 293.193 98.875 293.234C98.8907 293.281 98.9115 293.349 98.9219 293.396C98.9948 293.682 99.0104 293.573 99.0157 293.974C99.6927 293.328 99.9427 292.906 99.7344 292.016C100.891 292.479 98.7448 291.323 99.9636 292.208L100.656 292.49C101.479 292.646 100.781 292.625 101.62 292.25L101.901 293.094C102.734 293.037 102.938 292.87 103.417 293.12L103.688 293.323C103.63 292.323 103.792 292.885 103.234 292.198L103.526 292.057C103.854 291.823 103.656 292.089 103.901 291.76C104.255 291.292 104.297 291.484 103.953 290.969C104.583 291.167 105.005 290.953 105.24 290.229C105.078 290.109 104.719 289.448 103.927 289.953C104.073 289.037 104.255 289.755 103.958 288.833C103.073 289.167 102.536 289.537 102.005 289.521C100.813 289.484 98.4948 290.307 97.3542 290.74L92.8386 292.391C90.6302 293.073 88.1146 293.958 86.1875 295.042C86.3854 295.443 86.6198 295.948 86.8438 296.385C85.7136 296.781 86.9271 296.177 85.8282 296.537C85.375 296.682 85.1719 296.932 84.7344 297.151C83.8646 297.583 82.974 297.677 81.8334 297.755L81.3594 298.776C80.9688 298.526 80.3177 297.703 80.1927 297.214C80.1511 297.052 80.099 296.063 80.1198 295.906C80.2552 294.922 80.1459 295.203 80.8907 294.865C81.4427 295.13 81.25 295.224 81.5469 295.755C82.1875 294.76 82.0469 295.146 84.0729 294.875C86.625 294.537 88.0365 293.177 90.3698 292.432C91.0834 292.203 91.2188 292.245 91.8125 291.958C93.4219 291.177 95.2709 290.724 96.9792 290.083C99.5469 289.109 105.188 286.88 107.453 286.349C110.224 285.693 113.104 284.714 115.74 284.328C116.313 284.245 116.786 284.094 117.188 284C118 283.807 117.948 283.958 118.604 283.844C119.776 283.651 118.87 283.734 119.766 283.339C120.38 283.068 119.813 283.281 120.474 283.12C121.359 282.901 122.563 282.427 123.479 282.646C123.505 282.651 123.573 282.677 123.599 282.688L123.818 282.792C123.604 283.912 123.453 283.714 122.245 283.958C121.208 284.167 121.109 284.328 119.979 284.505C117.286 284.932 114.911 285.797 112.38 286.547C111.891 286.693 111.469 286.75 111.125 286.833C109.688 287.172 108.036 287.703 106.583 287.948ZM124.708 278.203C123.698 278.635 121.297 279.234 119.927 279.63L87.7552 290.125C87.1563 290.26 86.8959 290.365 86.375 290.01C86.8177 289.245 86.4479 289.755 87.1979 289.287C88.5313 288.453 88.0365 288.484 90.4323 287.276C91.1927 286.896 92.0417 286.708 92.724 286.292C95.0573 284.875 94.5365 285.443 96.0573 284.583C96.5365 284.318 96.2761 284.458 96.6615 284.287L97.7136 283.635C98.5313 283.005 99.0677 283.083 100.182 282.75C101.047 282.484 100.797 282.495 101.807 281.807C102.911 281.052 102.906 281.245 104.464 280.896C105.26 280.714 105.901 280.198 106.714 279.912C112.292 277.917 109.146 278.646 114.781 277.787C115.609 277.656 114.771 277.651 116.302 277.25C116.365 277.234 116.427 277.224 116.49 277.208L117.609 276.922C118.693 276.885 118.536 277.323 119.557 276.604C120.615 275.865 120.266 276.385 121.432 276.193C122.88 275.953 122.578 276.245 123.38 276.01C124.135 275.792 123.714 275.677 124.958 275.672L124.708 278.203ZM127.177 277.734C127.161 277.01 127.307 276.927 127.604 276.229C127.563 276.182 127.484 276.073 127.464 276.115C127.458 276.125 126.823 275.688 126.75 275.328C128.156 274.932 127.865 275.307 129.047 275.078L133.849 274.052C135.302 273.932 135.875 273.839 136.646 274.089L137.005 274.26C135.953 275.083 137.026 273.964 135.745 274.859L135.516 275.052C134.458 275.823 129.401 276.797 127.177 277.734ZM171.323 271.771C171.625 272.594 171.74 273.818 171.714 274.917C170.724 274.807 169.818 274.594 168.859 274.521C167.417 274.412 166.057 275.063 166.214 273.646C166.365 272.297 169.786 271.698 171.323 271.771ZM173.115 273.734C173.542 272.943 174.047 273.479 174.807 274.005L174.662 275.438C171.938 276.089 172.385 271.984 172.406 271.912C172.422 271.859 172.469 271.787 172.484 271.745C172.5 271.703 172.542 271.635 172.578 271.583C173.828 272.109 172.896 272.443 173.115 273.734ZM163.807 272.266C163.802 269.729 164.391 269.479 166.047 268.385C167.255 267.589 169.198 266.609 170.828 266.573L170.974 269.443L169.036 270.104C166.469 270.75 165.167 272.094 163.807 272.266ZM82.7709 283.76C83.0625 282.76 82.9688 283.266 83.4063 282.682C83.6615 282.344 83.8438 281.938 84.0417 281.589L85.0677 280.026C85.3073 279.208 85.1563 279.766 85.0521 279.516C84.5313 279.755 83.5 281.297 83.2552 281.839L81.5261 284.552C80.625 285.896 80.8542 285.005 80.0157 285.833L79.9479 285.609C79.9323 285.578 79.875 285.443 79.849 285.406L79.3542 284.995L80.125 284.432C80.1511 284.412 80.2032 284.359 80.2396 284.323L79.849 283.391C79.6823 282.99 79.5104 283.177 79.6563 282.406C79.6979 282.188 79.8073 281.792 80.1354 281.698C80.7604 281.516 79.9844 281.531 80.4271 281.776L80.9323 282.182L80.9532 281.365C80.5938 279.432 81.4532 280.573 80.4584 279.729C81.3282 279.635 80.9167 279.76 81.2865 279.245C81.625 278.776 81.0834 279.104 81.8021 278.417C81.4115 278.198 81.3282 278.537 81.1563 277.979L82.0052 277.323C82 276.901 81.6146 275.969 82.5573 275.464L82.8854 275.354C82.6094 274.667 82.6563 275.141 82.6459 274.281C83.4688 274.073 83.9115 273.745 83.7604 273.031C83.7604 273.021 83.7292 272.979 83.7396 272.953C84.2709 273.203 83.9011 273.271 84.4688 273.745C84.948 274.141 85.224 274.026 85.7396 274.25L86.1459 275.49L87.6719 275.203C87.7032 275.25 88.3282 275.922 88.3282 275.922L88.5521 276.943C89.4636 276.464 90.0938 276.724 91.1927 276.615C91.8802 276.547 92.7032 276.073 93.4063 275.839C93.7032 275.745 93.573 275.823 93.8959 275.672C94.2552 275.505 95.8282 274.323 97.4896 273.74C98.2865 273.458 98.9011 273.427 99.6563 273.083C100.359 272.766 101.021 272.453 101.776 272.135C103.615 271.365 105.74 270.953 107.5 270.412L108.318 270.12C110.51 269.401 114.229 268.906 116.552 268.698C117.641 268.599 117.651 268.292 118.943 268.109C120.026 267.958 120.906 268.172 121.542 268.057C122.432 267.901 121.599 267.818 122.682 267.693C123.339 267.62 122.896 267.792 123.771 267.641C126.75 267.125 126.031 267.833 126.224 268.13C125.531 268.203 124.375 268.51 123.427 268.703C122.974 268.792 122.37 268.974 122.005 269.037C115.964 269.995 116.589 270.359 111.495 271.656L103.135 274.422C102.229 274.792 101.734 275.099 100.688 275.448C95.8594 277.073 94.6719 278.089 90.4532 280.135C89.8854 280.406 89.7552 280.359 89.1354 280.599C87.599 281.198 84.6563 283.578 82.7709 283.76ZM175.146 268.005L176.792 267.828C176.995 268.885 177.25 268.948 176.974 270.057C176.031 269.906 175.787 269.609 174.766 269.531C173.859 269.464 172.88 269.589 172.021 269.359L171.573 266.391C171.703 266.344 171.792 266.245 171.823 266.297L172.516 266.031C172.635 265.995 173.25 265.844 173.349 265.823C174.12 265.656 174.688 265.682 175.51 265.651C175.391 266.339 175.318 267.245 175.146 268.005ZM165.083 265.953C165.646 262.896 167.786 263.651 169.448 263.469C170.458 263.359 170.219 263.667 170.443 264.547C167.219 265.219 166.667 265.599 165.083 265.953ZM167.375 259.984C168.063 259.443 168.479 258.724 169.609 258.385C169.76 260.266 169.688 260.146 167.375 259.984ZM178.557 261.349C177.703 261.339 175.734 260.708 174.896 260.328C173.401 259.656 172.651 259.995 170.859 259.802L170.641 257.313C173.552 256.297 174.906 254.719 178.057 254.109C179.62 253.802 179.771 253.724 180.875 254.547C181.037 256.667 180.266 256.469 179.839 258.094C179.427 259.693 179.234 260.156 178.557 261.349ZM128.427 255.662C128.995 253.359 134.484 254.339 136.234 254.208L142.156 254.5C142.729 254.583 142.807 254.677 143.417 254.833C143.875 254.953 144.411 255.005 144.865 255.109L149.682 256.953C149.708 258.938 150.286 259.13 145.281 258.438C141.458 257.912 139.219 256.917 134.26 256.391C133.313 256.292 129.089 255.969 128.427 255.662ZM150.021 253.339C148.365 252.563 143.958 251.901 142.568 251.068L145.125 250.297C145.651 250.12 145.62 250.229 146.208 250.078C147.411 249.776 149 249.443 150.474 249.604L150.021 253.339ZM107.031 248.125C107.604 246.422 109.438 246.589 110.609 246.37L115.505 244.745C116.432 244.531 116.115 244.823 117.026 244.849L122.745 244.323C122.979 244.266 128.542 243.609 129.344 244.287C128.719 244.714 127.484 244.682 126.734 244.818L120.974 245.641C118.469 246.052 108.495 248.083 107.031 248.125ZM130.667 238.385C130.484 237.318 130.62 236.266 130.875 235.224C132.885 235.479 136.089 234.958 138.089 235.25C141.307 235.719 142.479 235.943 146.099 235.875C147.51 235.849 147.526 235.958 148.672 236.151C149.661 236.323 148.557 235.76 151.245 236.391L150.891 241.151C148.656 241.208 146.057 239.083 141.682 238.693C137.651 238.333 134.724 238.37 130.667 238.385ZM129.917 238.297C127.625 238.646 125.406 238.521 123.13 238.823C121.568 239.026 117.573 239.453 116.047 239.359C116.464 238.854 115.958 239.167 116.807 238.797L119.276 237.974C121.661 237.078 127.938 235.094 130.193 235.396L129.917 238.297ZM160.141 233.344C160.859 234.662 160.505 234.672 162.302 235.958C162.901 236.38 162.849 235.974 163.042 236.917C163.609 239.708 162.391 240.344 164.917 241.87L166.047 241.432C165.896 240.479 165.172 237.625 166.229 237.099C166.693 237.854 167.255 245 167.635 246.646C167.922 247.885 169.37 255.068 169.177 255.724C168.755 256.609 163.49 259.031 162.188 259.932C161.573 260.354 162.26 259.943 161.635 260.307C160.875 259.443 160.969 257.703 160.75 256.693L158.63 245.052C157.99 240.255 155.891 234.552 156.745 229.115C157.844 228.828 158.052 229.76 158.589 230.484C159.365 231.531 159.948 231.125 161.005 231.755C160.911 232.938 160.906 232.313 160.141 233.344ZM110.359 236.089C110.099 235.208 110.234 234.104 110.38 233.177C111.094 233.135 112.052 233.328 112.781 233.599C113.589 233.901 113.802 234.287 115.25 233.563C115.943 233.219 116.479 232.885 117.359 232.62C120.734 231.594 121.536 231.729 124.901 230.542C125.865 230.198 129.38 229.516 130.542 229.656C130.458 231.802 130.443 230.823 126.01 231.656C117.214 233.313 117.922 233.823 110.359 236.089ZM131.37 230.865C130.953 229.922 130.932 229.578 131.87 229.427L136.333 229.182C137.26 228.984 140.286 229.078 141.406 229.318C142.385 229.531 144.307 229.693 145.104 230.281L144.547 230.464C144.479 230.474 144.417 230.49 144.344 230.5C144.125 230.526 143.724 230.51 143.495 230.495C141.453 230.37 140.297 230.203 138.005 230.276C136.078 230.339 132.891 230.99 131.37 230.865ZM143.708 227.219C144.474 226.531 144.667 226.651 145.719 226.339C148.068 225.641 147.698 225.052 148.63 227.333C148.964 228.156 149.104 228.146 149.271 229.068C147.943 228.885 146.563 228.026 145.234 227.703L143.708 227.219ZM151.672 221.802C152.135 222.563 152.646 223.75 152.797 224.849C152.016 224.542 151.354 224.208 150.156 224.24C150.193 224.182 150.255 224.037 150.276 224.073L150.609 223.63C150.766 223.412 150.797 223.391 150.953 223.104C151.292 222.49 151.266 222.375 151.672 221.802ZM108.87 229.625C109.74 229.016 110.417 229.37 111.849 228.807C114.224 227.875 112.609 228.469 114.453 227.49C115.203 227.089 116.479 226 117.958 225.344C118.568 225.073 118.859 225.109 119.49 224.859C120.068 224.63 119.844 224.578 120.646 224.266L130.203 221.172C130.24 221.162 130.302 221.141 130.333 221.13L130.823 221.094C130.938 221.714 130.922 222.443 130.87 223.089C130.771 224.333 130.745 224.25 127.276 225.469L113.005 229.401C112.307 229.552 111.927 229.453 111.328 229.693C110.365 230.078 109.297 231.49 108.87 229.625ZM107.807 227.479C106.854 225.912 109.188 225.24 111.464 223.208L116.12 219.266C116.167 219.313 116.224 219.323 116.24 219.406C116.26 219.505 116.427 219.63 116.458 219.672C116.641 219.912 116.563 219.885 116.776 220.13C118.547 218.573 118.995 219.125 121.969 216.875C122.589 216.412 123.083 215.995 123.677 215.521C124.167 215.125 124.859 214.688 125.349 214.349C125.953 213.927 126.526 213.651 127.266 213.385C128.604 212.912 129.953 211.38 131.141 211.531C131.193 213.922 131.073 213.542 129.438 214.474C126.646 216.073 125.464 216.469 123.031 217.927C122.536 218.224 121.953 218.453 121.411 218.74C117.958 220.568 111.547 223.714 109.135 226.141C108.083 227.203 108.703 227.037 107.807 227.479ZM150.984 220.302C148.552 220.354 146.161 219.167 140.755 220.589C139.234 220.99 137.677 221.354 136.188 221.912C135.073 222.328 132.927 223.333 131.568 223.417C131.594 222.297 131.49 221.667 131.802 220.656C133.703 220.26 135.448 219.662 137.464 219.401C139.526 219.135 136.927 220.172 139.927 219.281C140.656 219.068 140.703 219.182 141.438 219.021C142.656 218.755 146.984 217.016 147.656 216.302C148.635 215.245 148.682 214.714 149.042 214.188C149.286 213.833 149.625 213.672 149.885 213.276C150.104 212.943 150.24 212.318 150.474 211.927C150.521 212.021 150.594 212.177 150.599 212.37C150.599 212.448 150.182 215.104 150.469 216.453C150.625 217.203 150.703 216.641 150.635 217.219C150.568 217.818 150.427 217.078 150.464 218.245C150.51 219.891 151.266 218.859 150.984 220.302ZM152.568 208.349C152.755 206.953 153.24 206.141 151.599 206.099C151.172 206.089 151.479 206.151 150.938 206.12C150.349 206.089 150.875 206.078 150.219 206.026C148.943 205.932 148.031 206.469 147.083 206.776C147.031 206.792 146.974 206.813 146.922 206.828L145.667 207.089C144.708 207.292 143.682 207.677 142.828 208.005C141 208.698 139.292 209.365 137.583 210.177C136.651 210.62 133.448 212.542 132.656 212.583C132.021 209.854 133.26 210.401 134.563 209.333C136.417 207.813 134.719 209.474 138.578 207.87C139.922 207.307 140.708 206.427 142.313 206.417C142.547 206.412 142.693 206.75 143.839 205.703C145.922 203.797 145.313 204.521 146.859 203.245C147.344 202.844 147.646 202.396 148.182 201.948L151.286 199.578L154.823 195.057C155.156 194.266 155.021 193.688 155.51 192.885L156.24 195.672C156.427 196.656 156.568 197.589 156.766 198.662C157.073 200.302 157.953 203.182 157.964 204.599C156.021 204.646 156.057 206.198 154.583 207.042C152.896 208.01 153.911 207.958 152.568 208.349ZM92.1771 198.479C92.4636 198.958 93.3334 200.578 93.8646 200.844C93.8907 200.859 93.9532 200.875 93.9844 200.891L95.5886 202.667C96.3177 202.469 96.3334 202.24 96.7813 202.495C96.4532 203.198 96.3073 203.099 95.4323 203.693L93.4584 205.443C93.3907 205.5 93.2344 205.651 93.1094 205.755C92.974 205.87 92.8854 205.932 92.7448 206.047C91.3021 207.26 92.3334 206.938 91.0104 207.203C91.2448 202.458 91.4688 196.396 92.2969 191.99C92.6719 191.948 95.4688 191.958 95.7761 191.99C95.9688 194.083 95.5573 192.714 94.125 195.359C93.7552 196.037 93.5625 196.438 93.1771 197.052L92.1771 198.479ZM157.87 187.62C158.167 186.234 158.75 186.849 159.37 185.797C159.828 185.01 159.724 183.833 160.01 182.839L161.677 182.495C162.328 184.094 162.099 191.25 162.229 194.412C162.307 196.323 162.542 197.75 161.604 198.094C161.281 196.833 161.104 193.349 160.542 192.547C160.104 193.339 160.203 194.313 160.094 195.307C158.714 195.104 160.047 194.922 158.911 194.917C158.203 197.365 158.245 196.208 158.193 197.927C158.172 198.604 158.417 197.813 158.146 198.307C157.406 196.234 157.672 194.875 157.526 193.63C157.339 191.995 156.724 190.359 157.396 188.912C158.172 189.151 159.802 190.208 160.339 189.151C161.292 187.281 159.005 188.505 157.87 187.62ZM153.37 186.563C154.01 186.859 154.057 186.75 154.88 186.703L155.198 189.26C154.542 188.912 154.984 189.37 154.474 188.635L153.37 186.563ZM150.005 184.557C150.453 183.984 151.099 183.604 151.875 183.339C152.302 185.115 152.557 184.094 152.625 185.385L150.589 184.912C149.729 184.547 150.432 184.88 150.005 184.557ZM141.281 187.938C140.13 188.828 139.302 190.016 137.245 188.599C136.073 187.797 135.391 186.177 134.984 184.745L140.792 181.75C140.984 182.219 140.786 181.677 140.927 182.089L141.578 184.057C142.042 185.182 142.719 185.38 142.813 186.604C140.88 185.698 141.141 183.693 139.385 182.844C139.182 184.833 140.74 186.385 141.281 187.938ZM144.333 185.208C142.302 182.047 142.698 179.094 147.094 178.281C146.969 179.219 146.724 180.021 146.672 180.865C146.609 181.844 146.714 182.745 146.625 183.781C145.74 184.219 145.177 184.87 144.333 185.208ZM159.146 178.724C159.547 177.891 159.094 178.391 159.865 177.938C160.74 177.427 161.646 176.76 162.349 176.651C162.177 177.813 162.26 177.547 161.87 178.417L159.146 178.724ZM164.807 175.01C166.396 174.328 166.401 173.698 167.979 173.375C168.333 174.521 169.682 175.432 169.422 176.823C166.63 177.552 166.266 176.255 165.776 175.875C165.036 175.307 165.104 175.662 164.807 175.01ZM149.161 181.589C149.318 179.495 150.474 175.188 152.974 175.281C153.057 176.302 152.948 178.688 152.552 179.599C151.427 178.396 152.927 178.047 151.349 176.688C150.563 178.37 150.563 178.792 150.76 180.787C149.964 181.198 150.01 181.406 149.161 181.589ZM155.359 177.479C155.479 175.698 155.245 173.901 156.786 172.891C158.417 171.828 163.25 170.016 165.224 169.5L169.995 168.375C169.599 169 168.297 169.255 166.406 170.734C165.094 171.766 156.724 177.078 155.359 177.479ZM166.901 162.891C167.266 163.901 167.604 163.729 167.698 165.01C162.87 165.984 162.818 166.516 160.13 167.328C158.953 167.682 159.448 167.427 159.208 167.271L166.901 162.891ZM118.906 143.49C117.385 143.005 115.943 142.979 115.667 141.406C115.115 138.24 123.63 135.854 125.979 137.313L125.932 138.63C125.354 138.865 124.443 138.818 123.599 139.307C120.682 140.995 119.448 141.146 118.906 143.49ZM81.599 149.99C81.5365 148.25 81.2917 147.818 81.4219 146.031C81.5157 144.677 81.323 140.927 81.9167 139.901L84.6146 136.203C86.0938 134.495 87.6146 133.787 89.8229 132.662C91.6927 131.714 90.6094 131.87 92.5938 131.037C93.599 130.615 94.3386 130.047 95.0573 129.349L97.6823 127.604C100.917 125.573 100.224 126.719 101.969 125.323C102.859 124.615 103.63 124.516 104.776 123.75C106.844 122.365 106.615 123.104 108.797 124.703C109.568 125.271 110.188 126.094 110.802 127.078C111.479 128.151 112.714 128.547 112.953 129.318C113.406 130.802 112.036 129.448 113.276 132.245C115.313 131.276 114.786 131.042 115.74 131.609C114.953 133.099 113.422 131.766 112.714 133.891C112.323 135.052 111.849 136.906 112.661 137.922C113.833 139.391 115.385 138.292 116.135 137.526C116.807 136.839 117.557 135.271 118.479 134.859C118.203 136.323 118.469 135.531 118.531 136.896C113.807 138.807 113.719 143.146 115.604 143.938C116.568 144.344 116.411 143.974 117.385 144.563C119.354 145.75 120.391 144.688 121.224 145.099C122.25 145.604 124.365 150.708 122.891 153.214C122.594 153.839 122.927 153.443 122.151 153.844L110.031 158.349C108 159.313 105.734 160.031 103.563 160.854L96.8646 163.203C96.0938 162.557 96.1927 162.016 95.4532 161.677C94.875 161.412 93.8959 161.469 93.375 161.146C93.2865 159.839 93.7552 159.479 93.2917 158.172C92.8698 156.969 92.1615 157.078 91.1302 156.703C90.8542 157.448 90.5261 157.651 90.1823 158.609C88.6771 162.802 89.8907 165.448 88.5625 165.729C88.349 165.776 88.6146 165.604 88.2917 165.792C87.9896 165.969 88.0782 166.089 87.7084 166.38C87.2552 166.74 82.1198 168.135 81.2917 168.339C78.4011 169.037 75.5469 170.047 72.4271 170.693C71.974 168 73.0625 158.01 73.5729 155.333C74.5313 155.943 74.1459 156.625 74.8282 158.255C76.0313 158.453 75.4427 158.604 76.5157 158.078C77.0209 156.349 76.7084 154.359 77.8646 152.87C80.2136 149.854 78.9167 150.912 81.1042 150.198C81.599 150.037 81.2813 150.172 81.599 149.99ZM124.958 111.75C125.344 110.75 124.859 110.625 124.76 109.521C124.688 108.662 124.854 107.734 124.875 106.87C127.51 106.828 126.276 106.87 127.729 108.188C129.833 110.083 128.88 108.365 128.323 114.042C128.172 115.552 128.594 116.224 128.495 117.292L123.964 119.76C123.484 120.063 123.094 120.349 122.656 120.667C122.12 121.063 121.667 121.313 121.234 121.62C118.859 123.297 118.156 123.703 118.677 125.516C120.141 125.865 123.344 124.115 124.797 123.427C126.542 122.604 129.224 121.63 131.286 121.234C131.135 122.964 129.542 128.234 129.531 128.714C129.505 129.958 130.156 130.396 128.932 131.01C128.792 130.427 129.021 130.453 129.052 129.984C129.078 129.677 128.953 129.719 128.188 129.203L127.938 124.693C127.469 125.234 127.031 128.87 126.844 129.88C126.615 131.115 125.958 134.224 126.057 135.063C124.844 135 123.797 134.828 122.62 135.271C121.672 135.625 120.99 136.287 119.63 136.214C119.161 133.76 121.458 133.547 123.786 132.719C122.87 132.266 121.557 132.979 120.849 133.495C119.75 134.292 119.583 135.01 118.313 133.729L117.854 134.448C116.901 136.021 116.036 137.313 114.104 137.115C113.786 136.516 113.641 136.146 113.615 135.214C114.813 134.88 115.12 134.62 116.01 134.115C117.125 133.479 116.224 134.313 116.875 133.25C117.391 132.412 116.714 133.099 117.583 132.484C117.333 131.901 117.344 132.135 117.052 131.609C117.828 130.974 117.594 131.646 117.75 131.057L116.38 131.099C114.516 128.38 114.552 129.078 112.245 126.74C111.13 125.604 111.635 125.537 111.682 124.953C111.688 124.938 111.698 124.875 111.698 124.859C111.63 124.156 109.62 123.979 109.099 122.203C109.708 121.896 109.844 122.26 111.635 121.214C112.318 120.813 113.438 120.287 114.151 120.099C114.161 120.526 114.464 121.698 114.87 122.141L116.771 123.266C117.323 121.922 117.297 121.547 117.557 119.891C117.901 117.729 117.969 117.984 117.068 116.443C116.406 115.307 117.672 111.328 118.161 110.052C119.99 109.432 120 110.495 121.589 111.057C122.542 111.401 122.849 111.26 123.266 111.375C123.714 111.505 123.432 111.604 124.125 111.797C125.125 112.073 124.776 111.823 124.958 111.75ZM112.563 87.6355C113.182 87.224 113.974 86.8334 114.75 86.7396L114.807 92.6823C114.365 92.3386 112.583 87.6928 112.563 87.6355ZM134.74 78.6615C134.828 80.4375 131.99 83.5261 130.557 81.2865C129.182 79.1511 130.474 76.5365 132.38 75.9011L132.891 78.0938C133.516 78.323 134.146 78.2448 134.74 78.6615ZM121.016 13.375C121.146 12.4584 122.958 11.3334 123.938 11.5313C124.698 11.6823 124.906 12.2344 125.313 12.8073C125.771 13.4532 125.839 13.4636 126.099 14.3438L125.083 14.8438C125.089 14.8177 125.281 14.323 125.286 14.2552C125.406 13.3907 125.536 15.1302 125.302 13.9219C125.271 13.7761 125.026 13.4948 124.927 13.4271C123.229 12.2292 121.656 13.3386 121.016 13.375ZM88.7761 10.4063C88.7344 10.0573 88.7292 9.724 88.6615 9.38546C88.5313 8.73963 88.0677 8.10942 88.5 7.52608C88.9375 6.92712 99.5469 5.85421 101.026 5.81775C102.422 5.78129 104.339 5.92192 105.479 5.83337L111.75 5.11462C113.969 5.10941 114.807 5.80733 116.693 4.05733C116.307 2.89067 112.635 0.109416 111.5 1.56775L110.927 2.38546C110.63 2.7865 110.62 2.86463 110.094 3.02608C109.521 3.19796 108.141 3.31254 107.583 3.35421C101.87 3.77087 97.0782 3.39067 91.0729 4.16671C84.0729 5.06775 88.349 3.84379 83.0886 4.54692C81.3177 4.7865 82.7761 5.24483 81.6459 5.91671C79.7448 7.04692 79.1615 4.11462 81.1198 14.1198C79.5938 15.0886 77.198 15.6823 75.3021 15.5938C75.25 15.5886 75.1875 15.5834 75.1459 15.5834C75.1042 15.5834 75.0417 15.5834 75.0052 15.5886L74.4011 15.724C74.0782 15.7969 73.7188 15.875 73.2917 15.948C70.6511 16.3802 72.6875 15.7292 70.8646 16.8073C70.1667 17.224 69.5625 17.8802 69.4479 18.7969C69.3282 19.724 70.4844 21.7709 71.0886 22.6198C71.8907 23.75 72.4688 25.1042 73.2136 26.3907C74.0782 27.8698 78.1042 34.3594 78.9844 35.0625C80.0157 35.8855 80.1719 35.1771 80.8282 36.2188L80.5521 36.474C80.5104 36.5052 80.4584 36.5521 80.4115 36.5886C80.3646 36.6198 80.3125 36.6511 80.2657 36.6823C79.1511 37.3646 77.8334 38.0625 76.5052 38.1771C74.9532 38.3178 75.3177 38.0469 74.3177 39.0417L73.0157 40.6146C71.0573 40.6459 73.5104 39.8594 68.6563 41.3125L58.0573 45.1355C58.0052 45.1563 57.9479 45.1719 57.8959 45.1875C51.7448 47.1511 46.1146 50.2605 39.7032 51.724C32.0209 53.4792 26.4896 52.6302 18.8907 52.4948C13.75 52.4011 8.30212 49.4375 3.10941 48.7292C1.61462 48.5261 2.45316 48.9896 0.989615 49.1303C1.07816 50.5938 0.510449 49.6719 0.968782 50.7032L2.45837 52.724C2.88024 53.224 2.90628 52.9948 3.45316 53.4844C3.86982 53.8594 3.94274 54.1563 4.25524 54.4323C4.83857 54.948 4.78128 54.5938 5.3542 55.0834C6.09378 55.7084 5.88545 56.0053 7.10941 56.8386C8.52607 57.8125 9.82295 58.849 11.3542 59.7865C12.2188 60.3125 13.0261 60.5521 13.7292 60.9271C17.5104 62.9584 15.9948 61.8855 18.7865 63.0834C21.7188 64.3438 23.9323 64.7657 27.1146 65.2032C28.4375 65.3855 34.5521 66.1407 35.8334 65.5313L37.3073 64.9636C38.1719 64.9948 37.9584 65.2553 39.099 65.1355L39.323 65.5053C39.3542 65.5573 39.3907 65.6198 39.4219 65.6719C39.4532 65.7188 39.4844 65.7761 39.5209 65.8178L40.2344 66.2292C41.8802 66.4323 44.0782 66.2657 45.75 65.9844C47.3334 65.724 48.1615 65.0678 49.0104 64.8907C50.3073 64.6146 49.7448 65.4011 53.9479 63.9219C54.5729 63.7032 54.8438 63.5105 55.5365 63.323C58.5157 62.5105 61.7188 60.1615 62.7188 59.948C63.3177 59.823 63.8802 59.6771 64.224 59.7032C64.4688 60.099 65.25 61.4532 65.6198 61.7657C67.0104 62.948 71.0209 64.349 72.8386 64.3646C75.599 64.3855 81.8959 61.0886 82.8594 61.4219C84.5782 62.4063 84.1198 64.5 85.0104 65.9636C86.4427 65.9948 87.625 65.0053 88.6042 64.5053C88.5677 62.9115 88.9636 62.948 88.0677 61.8646C86.4948 59.9532 86.9844 59.1667 89.2709 58.1459C90.2917 57.6875 91.1667 57.1459 92.1302 57.3021C92.5573 62.4428 92.8438 67.0105 93.7448 72.2032C94.1302 74.4271 94.849 77.1875 94.9584 79.3178C95.0313 80.698 94.698 81.9792 95.5157 82.849C96.0417 83.4115 97.5938 83.9584 98.4219 84.1407L97.25 86.7605L97.9115 87.6823C98.1563 88.0469 98.2344 88.1771 98.4427 88.4792C99.1407 88.3594 99.6094 87.875 100.375 87.6303C102.13 87.0678 103.042 86.8959 104.865 87.0678C106.214 87.1875 105.927 86.6459 107.125 87.2136C109.042 88.125 110.948 92.5313 110.797 94.7188C110.589 97.6094 109.802 101.766 109.068 104.396C108.75 105.537 108.161 107.641 107.698 108.729L99.4636 117.359C96.8646 119.625 94.0625 119.094 91.9636 121.245C91.3125 121.917 91.474 122.156 90.349 121.99C89.5104 121.865 89.2188 122.089 88.3334 122.417C86.9688 122.932 85.4011 123.359 84.0209 123.828C83.1511 124.125 80.7813 125.37 79.9792 125.443C78.6407 125.568 80.2552 125.125 78.9115 125.505L75.6407 126.146C74.7709 127.583 75.5834 126.917 74.1198 128.12C73.5052 128.625 72.948 129.141 72.5469 130.037C70.5209 134.62 71.5729 132.531 72.375 135.125C73.0625 137.349 71.0157 143.875 70.7032 146.729C70.25 150.979 69.1823 154.401 69.0834 158.958C69.0417 160.885 68.6771 163.323 68.5261 165.323C68.349 167.719 68.4115 169 68.2136 171.552C67.1511 171.88 65.1198 172.333 63.7552 172.682C61.3698 173.297 51.0729 176.156 50.0469 176C49.3854 173.667 49.3229 173.87 47.4427 172.917C46.3334 172.359 45.2657 172.016 44.224 173.052C41.4219 175.833 42.8386 177.859 44.2761 180.479L47.4375 184.531C47.7292 184.823 48.125 185.172 48.4011 185.547C48.9792 186.323 49.4636 186.651 50.2344 187.198C52.1823 188.563 53.3438 189.802 56.1823 190.224C59.5782 190.734 59.3907 190.193 62.0625 189.37C62.5938 189.203 63.1146 189.104 63.6407 188.922L66.3438 188.12C67.0677 187.917 66.75 187.802 67.8646 187.724C67.724 200.505 66.599 213.484 67.6146 226.057C66.4427 225.646 65.4115 225.01 64.2552 224.609C62.8229 224.109 62.5052 224.182 61.8073 224.969C61.0313 225.849 61.2552 225.542 61.1927 226.969C62.4427 227.583 63.1927 228.099 64.4792 228.76C65.3229 229.193 66.7396 229.943 67.5625 230.5L66.9219 233.927C68.9636 233.839 69.5365 232.964 70.7188 234.771C70.9792 235.172 71.7084 235.635 72.4115 235.583C73.2813 235.526 72.4688 234.906 73.9011 235.245C74.823 235.458 75.698 237.021 76.4792 237.755C80.1719 241.255 79.5209 238.089 80.2917 236.214C80.8646 234.828 79.6667 234.234 78.7552 233.297C77.9219 232.438 76.6511 231.885 75.8386 230.938C76.4167 230.167 77.2032 230.089 77.3386 228.922C77.5573 227.073 76.224 227.641 75.0886 227.771C75.2709 225.453 74.9219 224.177 74.8698 222.193C74.7136 216.677 75.2448 211.995 75.0782 206.208L74.9792 190.484C75.0104 189.818 75.2136 188.677 75.224 187.859C75.2552 185.375 75.625 185.432 76.5104 185.349L79.0417 185.214C80 185.068 80.9219 184.479 81.9844 184.604C82.7448 185.078 82.0365 184.734 82.7657 185.531C83.1094 185.906 83.3177 186.016 83.6875 186.344C85.7084 188.125 86.3959 189.781 89.0834 190.885C89.0625 194.052 88.7292 197.13 88.2448 200.177C87.8125 202.891 87.7188 206.802 87.6146 209.516C87.5157 212.01 86.4584 211.953 85.2813 213.875L85.5157 214.083C85.5469 214.104 85.6042 214.156 85.6354 214.182C85.6667 214.203 85.7292 214.25 85.7604 214.271C86.0938 214.516 85.6146 214.26 86.1459 214.51C86.6615 214.208 86.6615 214.089 87.2396 213.802L88.4844 215.891C89.5938 215.792 90.0209 215.635 91.0729 215.708C90.8125 214.25 90.4323 213.557 90.6146 211.906C91.6927 211.042 92.1094 210.615 93.1407 209.932C95.3125 208.495 98.6302 205.74 100.932 204.573C101.859 204.104 102.792 203.365 103.625 202.917L110.448 198.787C111.135 198.391 111.469 197.948 113.073 197.042C113.479 196.813 113.99 196.474 114.417 196.203L120.052 193.063C121.068 192.505 121.948 192.219 122.99 191.641C124.063 191.047 124.589 190.51 125.708 189.99C127.063 189.354 128.297 188.781 129.365 187.948L131.339 186.849C132.313 186.339 133.318 185.469 134.344 185.365C134.073 189.359 136.271 189.276 137.422 191.12C136.734 192.344 133.344 195.469 132.094 196.63C131.661 195.787 131.813 194.135 131.578 193.172C131.568 193.13 131.521 193.094 131.516 193.005C131.505 192.922 131.479 192.896 131.443 192.849C131.37 194.083 131.589 196.771 131.167 197.594C130.651 196.875 130.099 192.62 129.688 191.307C129.307 191.813 129.438 192.167 129.536 192.932C130.318 198.865 131.495 197.38 126.865 202.292C125.479 203.76 124.099 205.104 123.036 206.344L115.688 214.537C112.094 218.76 107.651 221.984 103.266 225.302C102.526 225.859 101.828 226.505 101.068 227.042C100.318 227.568 99.4323 228.073 98.6719 228.594C90.9219 233.865 83.4063 239.448 74.9167 243.563L64.7084 248.87L65.6927 249.193C67.0365 249.714 69.6511 248.755 70.8854 248.266C74.9532 246.667 78.099 245.542 81.849 243.474C82.2552 243.25 82.5886 243.005 83.0573 242.714L89.4323 239.031C90.9427 238.12 92.5313 236.615 94.0052 235.714L97.5 233.318C98.1042 232.932 97.9948 232.932 98.625 232.458C99.3386 231.922 100.177 231.38 101.036 230.938C102.734 230.057 104.292 228.24 105.948 227.854C105.771 229.297 97.0209 242.12 96.0834 243.49L87.8959 254.281C87.224 255.714 86.25 256.875 85.3698 258.162L82.849 261.974C81.1459 264.552 79.5573 267.26 78.3073 270.089C76.2917 274.63 74.6615 279.193 73.1719 284.005C72.099 287.453 72.5313 289.214 70.3021 290.589C69.4323 291.13 69.7084 291.469 68.8177 292.125L69.8177 298.662C70.1927 300.74 70.5573 303.042 70.7396 305.266C70.8229 306.281 70.6042 307.25 70.7552 308.537L71.1198 310.323C71.3907 311.599 71.7657 312.177 72.0417 313.797C72.2344 314.896 72.2292 316.099 72.4479 317.141L72.1563 317.349C72.1146 317.38 72.0573 317.417 72.0104 317.448C71.9688 317.479 71.9115 317.516 71.8698 317.547C71.3959 317.901 71.1719 318.427 71.0469 318.63C70.4323 317.651 71.0677 318.339 70.0573 317.672C70.3021 317.13 69.8646 318.115 70.2344 317.391C70.3125 317.245 70.2657 317.51 70.4584 316.865C69.1667 316.901 68.7032 317.078 67.9688 318.01C65.9948 320.51 68.7917 321.146 69.9115 322.906C70.1615 323.297 70.2604 323.526 70.4063 323.891C70.9063 323.563 70.6511 323.443 71.2657 323.104C71.4948 323.365 71.5677 323.229 71.7032 323.76C72.2448 322.781 72.4688 322.714 73.8229 322.719C73.974 323.552 74.2657 323.667 74.5 324.891C74.6511 325.682 74.7084 326.641 74.8854 327.354L76.4427 331.464C76.9271 332.839 78.9584 337.057 78.2448 338.5C78.0886 338.823 78.1511 338.729 77.9948 338.927C77.474 339.599 77.8073 339.302 77.1146 339.526C76.9323 337.667 77.2344 338.896 77.8959 337.646C77.7657 337.948 76.1094 338.99 76.9479 341.031C77.3386 341.979 78.7292 342.656 79.0938 343.667C79.8386 343.453 78.474 343.162 79.5261 343.375L80.1042 343.927C80.125 343.953 80.1667 344.01 80.1875 344.037L81 344.609C81.4792 345.125 82.4532 347.594 82.8021 348.51C83.6563 350.766 84.0104 351.344 84.2917 353.745L83.8021 354.615C83.5938 354.974 83.7188 354.771 83.6511 355.135C83.2917 357.037 82.3073 355.51 82.1042 357.234C81.8959 359.021 83.9011 359.927 84.7136 360.792C84.7448 360.823 84.7865 360.87 84.8177 360.906C84.9636 361.057 85.0469 361.115 85.2709 361.333C85.6615 361.714 85.7136 361.807 86.1459 362.156C87.1563 361.932 86.0886 362.099 86.7448 361.901L87.4167 361.76C87.4688 361.662 87.5886 361.729 87.6771 361.729C87.5521 364.12 89.6823 365.349 89.5209 367.896C89.2813 368.552 86.9323 369.901 86.1511 370.537C85.0365 371.448 84.1094 371.859 82.875 373.172C82.125 373.969 81.9844 374.255 80.9584 374.901C80.8073 377.495 80.9792 378.635 82.6146 379.948C83.7396 380.849 85.2604 381.849 87.1042 382.037C87.0052 382.448 87.0469 382.932 86.8021 382.62C88.4532 383.172 88.5469 382.25 90.2917 382.109C91.125 382.042 91.5469 381.927 92.2917 381.875C93.2396 381.807 93.2084 381.974 93.9688 381.938C94.2396 382.964 94.1042 383.24 94.6042 384.177C96.1094 386.99 93.974 389.526 95.8802 391.005C96.5417 391.521 96.5834 390.99 96.7761 393.052C97.0313 395.708 95.6719 398 96.7969 400.563L98.0677 400.406C98.1563 401.787 98.8594 405.495 99.4115 406.484C101.245 409.766 102.875 406.875 104.188 406.604C104.141 410.417 104.651 416.615 106.25 420.021C107.047 421.729 110.901 429.109 112.036 429.479C111.568 429.01 109.62 425.115 109.266 424.193C107.276 418.969 106.495 417.026 106.594 410.344C106.615 408.734 106.141 406.734 107.276 405.625C108.516 404.417 107.365 404.953 108.026 404.042C109.417 404.229 108.005 404.229 109.12 404.573C109.786 403.162 109.214 403.833 109.87 402.995C110.521 402.156 110.682 402.323 111.245 401.734C111.286 401.688 111.401 401.537 111.443 401.484C112.167 400.578 112.13 401.162 112.979 400.339C113 400.323 113.042 400.281 113.063 400.26L113.547 399.802C112.813 399.641 112.734 399.484 112.307 398.964C112.417 398.089 112.536 398.734 112.719 397.583C111.583 398.042 112.13 398.01 111.38 398.807C111.026 399.188 111.146 399.063 110.693 399.276L110.234 399.458C110.177 399.484 110.021 399.563 109.964 399.589C109.052 399.99 107.755 400.74 106.839 401.047C106.906 399.531 106.823 397.75 107.094 396.365C107.177 395.948 107.156 396.094 107.25 395.813C107.271 395.75 107.302 395.703 107.323 395.641C107.344 395.583 107.37 395.537 107.391 395.479C108.057 393.724 107.495 394.25 109.245 394.057C109.682 393.089 109.672 392.599 110.599 392.083C109.938 391.755 110.328 392.396 110.141 391.24C110.563 391.438 110.516 391.479 110.958 391.651C111.135 391.724 111.755 391.531 111.917 392C112 392.26 111.969 392.557 111.969 392.833C112 392.792 112.031 392.724 112.047 392.698L112.63 391.974C113.073 393.875 112.083 391.698 112.635 393.74L111.729 393.271C112.052 393.922 111.984 393.333 111.823 394.016L111.604 394.453C111.594 394.417 111.531 394.547 111.516 394.599C112.302 394.594 112.432 394.594 113.068 395.026L113.307 395.224C113.448 395.453 113.125 395.5 112.833 395.698C114.083 396.318 113.229 396.896 113.547 398.109L113.734 398.76C114.104 398.495 114.557 398.521 115.005 398.516C114.714 397.781 115.214 398.313 114.208 397.943C114.875 397.615 114.354 398.214 114.813 397.214C114.771 397.188 114.708 397.151 114.688 397.135L114.104 396.469C114.068 396.344 113.953 395.604 113.922 395.026L114.234 394.896C114.682 394.625 114.635 394.797 114.807 394.359C115.354 394.568 115.057 394.432 115.375 394.891L115.625 395.344C115.641 395.313 115.672 395.458 115.708 395.505C115.995 395.281 115.667 395.109 116.104 395.479L116.495 394.495C116.505 394.406 116.526 394.38 116.563 394.328C116.589 394.38 116.609 394.458 116.62 394.5L116.849 395.604C116.901 395.948 116.99 396.245 116.995 396.797C115.792 396.922 116.833 396.729 116.286 397.162C115.661 397.656 116.755 397.292 115.682 397.646C115.885 396.802 116.094 397.125 116.344 396.104C115.12 396.417 116.313 396.537 114.807 396.552L115.974 398.453L117.109 398.198C117.708 397.552 117.375 398.245 117.344 397.234L117.656 386.26C117.708 385.594 117.901 385.646 117.953 384.755C118.031 383.391 117.854 382.25 118.599 381.141L119.089 380.833C119.099 380.787 119.172 380.828 119.245 380.797L118.969 379.714L119.625 379.495C119.328 379.266 119.193 379.188 118.984 378.839C119.24 378.135 119.427 378.412 119.682 377.745C118.906 376.708 118.385 375.531 118.693 374.245C118.839 373.63 118.5 373.609 118.875 372.646C119.094 372.089 119.219 372.292 119.542 371.568C120.047 370.443 119.76 369.984 120.818 369.26C121.813 368.578 123.313 367.813 124.438 367.599C126.224 367.255 125.458 367.276 126.818 366.526C127.635 366.073 128.271 365.656 129.042 365.245C130.37 364.531 130.448 364.609 130.161 363.313C130.234 363.318 130.823 363.385 130.839 363.385C131.255 363.385 130.932 363.458 131.208 363.302C130.516 362.802 130.51 362.917 130.661 361.958C130.839 360.854 130.734 361.51 130.443 360.771H131.536L131.526 359.214C132.724 359.672 132.156 359.354 132.75 358.339C133.109 358.51 133.068 358.823 133.516 358.813C133.568 358.682 133.635 358.651 133.635 358.307C133.641 357.839 133.625 358.146 133.469 357.859C134.25 358.073 133.672 358.063 134.542 358.307C134.651 357.865 134.74 357.557 134.906 357.224C135.344 358.146 136.344 357.198 137.198 357.016C137.172 356.953 137.12 356.885 137.099 356.849L136.885 356.385C136.62 355.188 137.078 356.766 137.016 355.62C136.99 355.172 137.177 354.984 135.573 354.938C135.766 356.089 136.167 355.547 136.203 356.906C135.323 356.656 135.755 356.651 135.38 356.031C133.802 356.162 135.464 355.938 134.396 356.432C134.245 355.958 134.245 355.995 134.021 355.495C133.594 354.557 133.818 355.453 133.63 354.552C134.172 354.292 134.792 354.287 135.38 354.412C135.401 354.417 135.938 354.594 136.302 354.599C135.938 353.885 135.464 353.844 135.854 353.479C136.38 352.979 136.021 353.432 136.245 353.656C136.271 353.688 136.318 353.75 136.339 353.776L136.693 354.162C137.182 353.031 136.724 353.943 136.469 353.073C136.219 352.214 136.344 353.115 136.677 352.255L135.281 350.698C134.99 350.276 134.859 350.141 134.625 349.818C134.38 349.484 134.281 349.323 134.068 349.083C133.375 349.203 133.344 349.745 133.281 349.62C133.266 349.583 133.224 349.714 133.188 349.755L132.005 348.953C131.698 348.63 131.828 348.412 131.438 348.203C131.031 348.063 128.214 347.875 127.396 347.87C127.792 347.188 128.422 346.74 129.109 346.484C129.375 346.385 129.5 346.375 129.797 346.292C133.167 345.302 136.547 342.818 137.219 342.589C136.823 341.906 137.135 342.875 136.766 341.74C138.391 341.005 137.948 340.484 137.969 338.833C137.995 337.333 137.922 336.787 137.615 335.469C136.589 335.792 137.021 335.807 136.469 335.099C134.047 331.969 136.505 331.37 137.531 328.75C137.901 327.797 138.458 327.391 139.01 326.464C139.979 324.839 140.422 323.807 141.833 322.495C141.87 322.464 141.927 322.427 141.958 322.385L142.151 322.115C142.734 321.047 141.974 321.964 143.177 320.302L144.406 318.271C144.813 317.745 144.901 318.412 144.932 317.047L145.771 317.453L145.646 316.042C147.094 316.229 146.214 316 147.271 315.26C148.5 314.396 147.661 315.724 148.38 314.078L147.911 313.953C147.542 313.807 147.536 314.01 147.495 313.328H148.823L148.953 312.172L150.698 312.391C150.729 312.344 150.75 312.26 150.766 312.219L150.87 311.901C150.88 311.865 150.891 311.792 150.896 311.76C151 311.219 150.604 311.948 150.917 311.333C151.333 312.073 150.807 312.094 152.052 312.167C151.813 311.448 151.609 310.656 151.24 310.026C150.833 309.339 150.427 308.984 150.141 308.172C150.078 307.078 155.677 298.917 157.031 296.609L157.479 295.896C158.292 296.714 157.615 296.917 159.229 298.219C162.094 297.234 160.531 296.813 161.115 294.979C161.302 294.375 161.474 294.531 161.734 293.828C162.443 291.922 162.656 289.781 163.047 287.672C163.479 287.401 163.573 287.438 164.245 287.365C164.385 285.052 165.089 286.24 164.198 284.172C163.646 282.891 163.021 281.328 164.484 280.766L165.906 280.255C166.094 279.557 166.016 279.292 166.641 278.854C166.266 277.484 166.708 279.573 166.214 278.198L167.089 277.214C168.208 275.745 170.807 275.849 172.146 276.432C172.375 277.057 172.958 283.297 172.76 284.313C172.51 285.594 166.13 292.557 166.214 314.531C164.042 314.667 164.068 315.38 163.078 316.589C162.214 317.641 161.641 318.547 161.031 319.589C159.177 322.781 152.568 338.563 152.51 341.359C154.443 341.021 154.771 339.328 156.036 338.016C156.547 337.479 158.099 334.271 158.458 333.448C159.208 331.729 159.734 330.25 160.599 328.583C161.193 327.432 161.922 324.589 163.224 324.021C162.703 326.104 162.042 328.24 161.552 330.354C161.042 332.547 160.354 334.531 160.161 336.734L158.479 337.823L156.255 340.859C154.734 342.599 150.906 346.412 151 348.781C153.047 348.37 153.865 349.453 155.13 347.167C156.026 345.537 156.599 345.026 157.693 343.828L161.938 339.313C162.911 338.641 163.073 339.224 163.661 338.146C163.797 337.646 163.542 335.917 163.911 334.573L166.734 325.542C167.177 324.703 166.75 325.37 167.167 324.953C167.375 327.25 165.932 327.906 166.495 329.557C166.943 330.865 167.146 331.516 168.297 332.146C168.828 332.438 168.469 332.37 169.078 332.594C170.057 332.089 168.672 332.344 170.292 331.797C170.568 327.927 170.714 328.115 170.12 323.943C168.755 314.375 168.391 311.651 170.729 301.547C171.25 299.287 171.958 297.021 172.479 294.745C173.146 291.854 174.208 289.339 175.5 287.021C176.984 284.37 173.979 285.182 175.802 282.313C176.245 281.62 176.38 280.667 176.526 279.797C176.75 278.469 176.438 276.75 176.141 275.37C176.88 275.245 177.224 275.443 177.563 275.094C178.49 274.156 176.875 275.172 177.667 274.266C178.5 273.307 178.776 274.672 178.953 272.339C179.135 269.964 179.203 268.385 178.635 266.38L179.417 265.76C180.625 265.115 180.328 265.109 180.474 264.672C180.682 264.052 182.146 262.412 182.703 261.417C184.266 258.62 183.63 258.787 183.26 256.271C183.052 254.839 183.901 252.641 180.677 252.427C179.359 252.344 176.443 253.026 175.198 253.474C173.932 253.932 171.74 255.156 170.51 255.12C170.193 253.313 170.047 251.016 169.833 249.188C169.391 245.349 168.75 241.563 168.729 237.714L168.542 234.958C167.974 231.912 168.307 232.172 169.833 230.162C170.177 229.698 170.833 228.859 171.125 228.37C171.495 227.75 171.734 226.974 172.005 226.198C172.542 224.646 172.568 225.24 173.214 224.344C173.5 223.948 173.563 223.589 173.781 223.162C175.042 220.682 176.552 218.573 176.037 215.677L174.859 210.521C174.646 209.839 174.344 208.953 173.974 208.318C173.01 206.682 170.99 204.714 169.115 203.984C168.323 203.677 164.818 204.5 164.698 204.474C164.432 204.021 164.49 204.427 164.484 203.589C165.802 202.589 165.495 204.292 168 201.62C167.344 199.323 166.589 200.776 165.563 199.901C163.995 198.568 164.396 195.516 164.385 193.526C164.375 191.557 163.911 189.849 163.932 187.62C163.948 186.542 163.88 185.755 163.833 184.724C163.802 183.984 163.635 182.583 164.104 182.167C164.453 181.901 167.021 181.484 167.766 181.49C171.328 181.51 174.615 186.432 175.422 186.984C176.849 186.62 176.469 186.438 177.172 185.302C178.047 185.531 179.474 186.672 180.266 186.703C181.229 186.74 180.979 186.479 181.625 185.953C183.771 184.208 184.63 184.464 181.323 181.073C180.745 180.474 180.693 180.302 180.292 179.885C179.526 179.505 180.281 180.828 177.573 178.464C176.198 177.266 172.641 172.328 172.063 170.688C173.792 169.568 173.734 169.969 175.417 170.766C176.396 171.234 177.573 171.641 178.651 172.125C181.63 173.469 181.583 175 190.542 178.38C193.469 179.484 195.167 179.521 197.573 180.339C197.537 182.448 195.5 184.547 194.255 186.313C193.714 187.083 192.922 187.318 192.344 187.037C192.443 188.323 192.292 187.984 192.146 189.037C192.01 190.005 192.292 189.672 192.479 190.719C192.698 191.901 192.557 193.417 192.708 194.682C192.938 196.578 193.708 200.953 192.865 202.422C191.839 204.208 191.016 206.333 190.443 208.5C190.156 209.573 189.12 214.792 189.974 215.693C190.083 215.802 189.734 216.151 190.787 215.88C193.182 215.255 192.76 211.932 193.281 210.115C193.464 209.474 193.563 208.672 193.729 208.12C194.99 203.813 197.073 205.505 197.422 204.344L197.51 202.948C197.229 200.708 198.359 201.646 197.87 200.422C197.719 200.031 197.281 199.896 197.146 199.87C197.167 197.938 196.833 195.698 196.51 194.109C196.333 193.219 195.656 189.516 195.734 188.932C196.13 188.422 196.547 187.854 197.344 187.599C197.693 193.26 198.146 195.427 199.552 200.5L200.839 204.245C201.396 205.432 201.953 206.448 202.573 207.537C203.453 209.094 203.828 210.438 204.432 212L204.797 212.974C205.104 213.906 206.781 217.094 207.807 217.339C209.51 213.646 207.906 214.672 208.156 212.896C208.318 211.787 208.089 208.833 207.328 208.24C206.146 207.313 204.38 207.042 203.688 205.708C201.167 200.859 200.307 197.182 199.87 191.349C199.656 188.521 199.375 185.552 200.589 183.24C201.037 182.38 201.005 181.787 201.677 181.339C202.469 181.771 202.698 182.156 203.266 182.693L204.708 181.276C205.099 178.474 202.135 178.042 200.438 176.844C200.641 175.026 201.422 173.323 198.526 173.323C198.344 174.083 198.328 175.193 197.958 175.854C195.932 175.432 192.552 173.349 191.042 172.219C188.083 169.995 184.818 168.042 181.641 165.87C178.943 164.031 178.969 164.198 176.573 163.073L173.052 161.333C172.328 160.906 171.953 160.859 171.641 160.125C172.245 159.609 172.823 159.557 173.443 159.135L174.859 157.943C174.589 157.198 174.698 156.724 174.302 155.844C175.344 155.714 175.62 154.849 175.625 153.708C174.135 152.885 173.474 152.885 172.417 151.052C171.672 149.75 171.818 150.229 170.484 149.771C170.708 149.24 170.438 149.469 170.708 149.016C171.385 147.875 173.021 147.802 173.698 146.573C173.708 146.552 173.734 146.495 173.74 146.474C173.745 146.458 173.755 146.401 173.755 146.385L173.672 146.073C174.99 146.125 175.641 145.99 176.745 145.396C176.401 144.797 176.229 144.344 176.094 143.448C176.839 143.745 176.526 143.922 176.688 144.781C176.734 144.74 176.792 144.688 176.823 144.662L177.203 144.333C177.401 144.177 177.385 144.198 177.563 144.089C177.479 142.969 177.115 142.818 177.609 141.745C177.99 142.495 177.385 141.052 177.677 142.026L178.932 141.151C179.266 140.589 179.802 140.302 180.391 140.578C179.521 141.078 179.75 140.234 179.531 141.516C180.745 141.255 180.662 141.016 180.99 139.922C180.688 139.714 181.005 139.76 180.479 139.682C179.818 139.583 180.38 139.63 180.068 139.854C180.182 139.193 180.182 139.547 180.292 139.287L180.531 138.766C179.734 139.068 179.787 138.88 179.182 139.427C179.219 138.958 179.146 139.083 179.349 138.807C179.844 138.146 180.594 138.526 180.891 138.87L180.958 138.609C180.964 138.583 180.984 138.51 180.995 138.49C181.208 138.073 180.604 138.625 181.208 138.219C181.271 138.177 181.859 138.021 182.021 137.984L181.62 136.641C182.412 136.109 181.979 136.724 182.474 135.766L181.354 134.948C181.859 135.203 181.839 135.234 182.469 135.375C182.328 134.708 182.182 134.76 182.458 134.26C182.938 133.396 182.797 134.734 183.016 133.844C183.026 133.802 183.089 133.818 183.12 133.797C182.854 132.521 182.807 132.188 182.76 130.807C182.724 129.917 182.859 128.979 182.594 128.141C180.385 128.693 178 130.62 175.896 131.87L174.188 132.802C170.448 134.859 168.792 135.412 165.328 137.057C163.896 137.74 154.688 141.651 154.198 141.526C153.667 141.208 153.865 141.385 153.557 141.016L152.698 139.24C152.344 138.37 152.141 137.318 152.078 136.406C151.875 133.464 152.344 132.625 149.359 132.245C149.172 132.63 149.031 133.052 148.813 133.667C148.078 135.734 147.344 135.042 148.75 137.708L150.417 141.51C150.661 142 150.849 142.167 150.99 142.766C150.219 143.469 144.406 145.26 142.979 145.797L140.229 147.182C139.849 147.391 139.745 147.375 139.323 147.589C138.172 148.177 136.615 149.068 135.25 149.208L136.12 148.547C135.646 148.589 132.719 149.76 132.12 150.037C131.438 150.344 130.786 150.552 130.083 150.839C129.318 151.151 128.703 151.453 127.781 151.276C127.188 147.667 128.109 142.901 129.979 139.787C130.724 138.537 130.714 137.443 130.359 135.927C129.974 136.505 130.125 137.995 129.927 138.682L129.708 137.547C129.667 137.38 129.578 137.167 129.255 136.87C128.844 136.49 128.932 136.62 128.474 136.328L127.75 135.766L129.615 135.031C130.427 134.557 131.349 134.396 131.813 133.297L130.589 132.922C130.62 131.802 130.906 131.484 131.266 130.412L130.599 130.297C130.698 129.938 130.786 129.354 130.974 128.958C131.396 128.078 131.302 128.828 131.672 127.891C131.583 125.479 131.635 125.797 132.146 123.552C132.401 122.432 132.37 120.698 133.49 120.089C134.031 119.792 134.583 119.677 135.141 119.328C136.13 118.719 135.438 118.938 136.776 118.516C138.99 117.818 140.484 116.068 142.615 114.99C143.479 114.552 145.396 114.162 146.495 114.589C147.885 115.135 149.26 118.953 151.563 118.87C152.26 117 151.099 116.833 152.885 116.203L153.125 116.932C153.13 116.969 153.24 117.495 153.24 117.495C153.302 117.839 153.37 118.412 153.474 118.797C154.099 121.073 155.901 123.167 155.698 125.542C154.953 134.24 156.172 131.979 156.661 133.573C157.016 134.724 156.531 134.521 157.479 135.563C158.068 135.479 158.24 135.443 158.854 135.182C159.594 131.646 158.839 128.115 159.266 124.396C159.458 122.724 159.495 120.594 159.781 119.073C160.104 117.339 160.443 118.609 160.318 116.802C160.146 114.302 161.385 115.714 159.599 112.88C159.115 112.109 159.104 112.719 158.667 111.375C158 109.333 157.51 109.88 156.286 108.734C155.771 108.255 155.74 107.995 154.849 107.568C152.646 106.516 152.255 105.521 148.938 106.891C146.958 107.708 141.818 107.031 140.141 106.052C138.474 105.083 136.031 102.979 134.828 101.37C133.167 101.349 133.307 101.443 132.531 102.287C130.797 101.547 130.719 103.26 128.87 100.266C128.5 99.6719 127.188 96.8125 127.016 96.0261C126.599 94.1667 126.167 92.7657 125.99 90.875C125.823 89.099 125.854 86.6823 126.234 85.099C126.708 83.125 126.536 81.724 127.089 79.8021C127.859 77.1094 129.125 72.8907 129.615 70.0625C129.922 68.2865 128.917 65.9532 131.068 65.3021C131.125 66.6615 130.88 68.2344 130.818 69.6928C130.755 71.2553 130.896 72.8646 130.828 74.2865C130.161 75.2657 129.542 75.4584 129.344 77.2084C129.099 79.4532 129.417 82.4532 131.443 83.6928C133.797 85.125 137.417 79.2605 135.813 77.1355C135.427 76.625 135.036 76.6459 134.854 75.9115C134.531 74.599 136.635 73.1823 131.828 73.2553C131.901 72.1303 132.307 70.8438 132.458 69.6771C132.891 66.3698 132.536 66.0417 133.708 62.5678C133.953 61.8542 134.141 61.6094 134.396 61.0938C135.13 59.6146 135.339 57.9896 135.87 56.4323C136.714 53.9584 134.458 53.2136 133.172 51.5521C132.479 50.6563 131.505 50.2396 130.464 50.3698C129.255 52.0782 130.318 51.1563 130.078 52.9792C129.484 52.6146 129.115 51.9063 128.813 51.3178C128.417 51.7188 128.297 52.1927 127.885 52.5782C127.057 53.349 127.453 52.4219 126.755 53.6303C126.208 54.573 125.958 55.9011 125.719 57C125.297 58.9167 125.688 60.8282 124.771 64.7396C124.115 67.5365 125.146 69.6875 124.005 72.2969L123.271 73.7344C122.62 75.5053 122.208 77 120.5 76.5365C119.432 78.0209 116.948 78.6771 115.167 79.6719C113.182 80.7761 110.036 83.0834 111 79.323L111.37 79.224C111.438 79.2032 111.672 79.1511 111.745 79.1303L112.464 78.8855C112.411 78.4167 112.359 78.0938 112.193 77.7813C111.906 77.2396 111.469 76.9115 111.323 76.2657L109.953 71.8698L110.12 64.6042C111.255 58.8125 110.693 56.0417 110.922 54.4323C111.047 53.573 111.161 53.8855 111.208 52.6407C111.38 48.2552 110.922 48.5365 113.156 47.448C115.76 46.1719 115.599 46.8386 116.536 46.4428C116.823 46.3178 116.307 46.4844 116.922 46.2032C116.969 46.1823 117.021 46.1511 117.073 46.1303L118.313 45.9688C118.599 45.474 118.656 45.0782 119.193 44.823C120.745 44.0782 125.109 41.7969 127.146 42.4844C127.297 43.2865 127.333 42.9323 126.495 43.3646L127.802 43.3698C127.688 43.8594 127.583 43.9375 127.719 44.2032C131.083 43.5052 131.365 42.4688 132.729 42.1563C133.938 41.8802 137.552 40.7657 138.484 40.9844C140.005 41.3438 142.974 42.8073 144.193 41.3178L145.688 39.2865C146.182 38.5105 146.578 38.2917 146.271 37.4063L146.13 37.0886C147.625 37.1198 147.271 37.4584 147.724 36.3178C147.943 35.7761 148.214 35.8334 148.938 34.6875L147.703 34.7188C147.682 34.6719 147.615 34.7084 147.578 34.6875C148.135 34.1198 147.344 34.8334 147.891 34.3386L149.276 33.6355C150.87 33.2084 151.5 33.4271 153.599 32.724C154.396 32.4532 155.391 32.5 155.557 32.4271L157.047 31.375C158.328 30.75 158.193 31.2344 159.151 31.1407C159.781 31.0834 160.234 30.7657 161.417 30.8802C162.307 30.9636 161.661 31.0157 162.328 30.9167C162.745 30.8542 162.042 30.5313 163.297 30.8438C163.115 31.8073 163.276 31.6198 162.24 32.0365C161.828 32.2084 161.208 32.4375 160.755 32.4375C160.385 32.4375 158.63 32.2396 158.167 32.7188C157.823 33.5053 158.099 33.8698 158.359 34.7032C158.974 35.0417 158.641 34.7865 159.177 34.9792L159.49 35.0938C160.359 35.4167 161.12 35.3438 162.052 35.448C162.766 35.5313 163.115 35.8073 163.828 35.8125C165.302 35.8282 168.135 35.4167 169.484 35.8386C170.313 36.099 170.193 36.1407 170.755 36.7292C171.63 37.6511 171.432 36.8178 171.526 37.9271C172.656 36.9271 172.25 38.1771 173.339 38.3073C173.745 36.9688 173.167 37.8073 173.219 36.3855C173.833 36.1355 173.583 36.3021 174.51 36.4167C174.464 34.2084 174.198 35.0105 176.068 34.8438C177.224 34.7396 176.354 34.7032 177.281 34.1459C177.625 33.9375 178.333 33.7709 178.609 33.6667C182.266 32.3282 183.859 30.6927 186.203 29.698L188.662 28.4375C189.083 28.25 189.583 28.0052 189.974 27.7917C192.792 26.2396 192.917 27.6094 193.505 25.9375C191.672 24.3646 183.172 26.948 180.521 27.7292C179.099 28.1511 178.037 28.8698 176.563 29.1407L176.375 28.4688C176.219 27.849 176.516 28.4844 176.219 27.9375L175.844 27.474C175.833 27.4636 175.568 27.1042 175.563 27.0886C174.958 25.849 175.766 26.2657 174.656 24.7292C174.313 24.2605 174.516 24.5886 174.318 24.1511C174.089 23.6459 174.354 23.9584 174.073 23.5313C173.75 23.0365 173.177 22.823 172.583 22.625L171.76 22.1771C170.901 21.3542 169.943 21.4792 168.63 21.4375C166.016 21.3594 164.604 20.5105 161.958 21.4532C160.271 22.0521 156.818 21.9584 154.635 21.8907L150 21.7969C148.833 21.3594 150.344 21.5313 148.927 21.3698C144.151 20.823 137.547 24.7552 136.422 21.4011C135.526 18.7032 135.875 20.0105 128.589 21.1094C126.745 21.3855 123.292 23.2552 121.802 22.7032C121.865 21.6459 122.833 20.875 123.766 20.4167L123.667 19.2552C125.974 18.7761 125.953 18.4636 128.609 18.375C129.875 18.3282 129.359 18.1719 130.115 17.9688C131.271 17.6563 131.75 17.2709 131.688 15.7865C130.734 15.2136 130.063 14.6771 128.885 14.5365C128.734 13.1094 128.385 12.4532 127.635 11.5834C125.839 9.50004 125.776 8.67712 122.146 10.0521C121.307 10.3698 120.974 10.849 120.266 11.2605C119.875 11.4896 120.271 11.4167 119.625 11.5052C119.24 10.7448 119.281 10.0886 119.052 9.1615C118.005 4.93754 117.214 5.66671 113.698 6.08337C111.932 6.29171 112.01 6.44275 110.516 6.724C109.021 7.00525 107.344 7.05733 105.766 7.33337C101.167 8.13546 97.2396 9.38546 92.9271 10.6355C92.1511 10.8594 91.75 11.0157 90.9375 11.2865C90.2032 11.5365 89.6719 11.8594 89.0261 11.4688L88.7761 10.4063Z" fill="#030303"/>
</g>
</svg>
